<?xml version="1.0" encoding="utf-8"?>
<svg viewBox="-167.365 -317.651 949.478 933.962" xmlns="http://www.w3.org/2000/svg">
  <rect x="170.672" y="631.254" width="953.58" height="945.5" rx="1.195" ry="344.56" transform="matrix(0, -1, -1, 0, 1413.16806, 802.928986)" style="fill: none;"/>
  <path class="dark" d="M -175.534 146.281 C -175.788 146.281 -175.991 89.802 -175.991 19.651 L -175.991 -74.576 C -175.991 -137.23 -175.828 -188.666 -175.612 -199.016 L 180.148 146.284 L -175.532 146.284 Z" fill-opacity=".61236" style="" transform="matrix(0, -1, 1, 0, 28.444504, -24.287521)"/>
  <path class="dark" d="M -166.354 38.926 C -166.608 38.926 -166.811 -17.553 -166.811 -87.704 L -166.811 -181.931 C -166.811 -244.585 -166.648 -296.021 -166.432 -306.371 L 189.328 38.929 L -166.352 38.929 Z" fill-opacity=".41573" style="" transform="matrix(0, -1, 1, 0, 144.979507, -122.462509)"/>
  <path class="light" d="M 184.687 35.036 L -172.463 -311.604 C -172.452 -311.793 -172.442 -312.451 -172.431 -312.451 L 192.329 -312.451 C 192.582 -312.451 192.786 -255.972 192.786 -185.821 L 192.786 -91.594 C 192.786 -21.44 192.582 35.036 192.329 35.036 L 184.688 35.036 Z" fill-opacity=".83708" style="" transform="matrix(0, -1, 1, 0, 148.868988, -128.54599)"/>
  <path class="light" d="M 281.657 304.965 L -75.493 -41.675 C -75.482 -41.864 -75.472 -42.522 -75.461 -42.522 L 289.299 -42.522 C 289.552 -42.522 289.756 13.957 289.756 84.108 L 289.756 178.335 C 289.756 248.489 289.552 304.965 289.299 304.965 L 281.658 304.965 Z" fill-opacity=".67416" style="" transform="matrix(0, -1, 1, 0, -24.089985, 238.353016)"/>
  <path class="light" d="M -106.845 152.343 C -107.099 152.343 -107.302 95.864 -107.302 25.713 L -107.302 -68.514 C -107.302 -131.168 -107.139 -182.604 -106.923 -192.954 L 248.837 152.346 L -106.843 152.346 Z" fill-opacity=".48315" style="" transform="matrix(0, -1, 1, 0, 91.071503, 50.463501)"/>
  <path class="dark" d="M 184.687 618.116 L -172.463 271.476 C -172.452 271.287 -172.442 270.629 -172.431 270.629 L 192.329 270.629 C 192.582 270.629 192.786 327.108 192.786 397.259 L 192.786 491.486 C 192.786 561.64 192.582 618.116 192.329 618.116 L 184.688 618.116 Z" fill-opacity=".67416" style="" transform="matrix(0, -1, 1, 0, -434.211014, 454.534012)"/>
  <path class="light" d="M 396.817 551.446 L 39.667 204.806 C 39.678 204.617 39.688 203.959 39.698 203.959 L 404.458 203.959 C 404.712 203.959 404.915 260.438 404.915 330.589 L 404.915 424.816 C 404.915 494.97 404.712 551.446 404.458 551.446 L 396.818 551.446 Z" fill-opacity=".67416" style="" transform="matrix(0, -1, 1, 0, -155.411491, 599.993507)"/>
  <path class="light" d="M -10.107 618.232 C -10.682 618.232 -11.142 490.372 -11.142 331.562 L -11.142 118.252 C -11.142 -23.588 -10.772 -140.028 -10.284 -163.458 L 795.086 618.222 L -10.104 618.222 Z" fill-opacity=".67416" style="" transform="matrix(0, -1, 1, 0, 164.585005, 619.359022)"/>
  <path class="dark" d="M 673.599 401.939 L 316.449 55.299 C 316.46 55.11 316.47 54.452 316.481 54.452 L 681.241 54.452 C 681.494 54.452 681.698 110.931 681.698 181.082 L 681.698 275.309 C 681.698 345.463 681.494 401.939 681.241 401.939 L 673.6 401.939 Z" fill-opacity=".67416" style="" transform="matrix(0, -1, 1, 0, 270.878002, 727.269001)"/>
  <path class="dark" d="M 740.269 177.686 L 383.119 -168.954 C 383.13 -169.143 383.14 -169.801 383.151 -169.801 L 747.911 -169.801 C 748.164 -169.801 748.368 -113.322 748.368 -43.171 L 748.368 51.056 C 748.368 121.21 748.164 177.686 747.911 177.686 L 740.27 177.686 Z" fill-opacity=".67416" style="" transform="matrix(0, -1, 1, 0, 561.80098, 569.685989)"/>
  <path class="light" d="M 280.105 108.996 L 637.255 -237.644 C 637.245 -237.833 637.234 -238.491 637.224 -238.491 L 272.464 -238.491 C 272.21 -238.491 272.007 -182.012 272.007 -111.861 L 272.007 -17.634 C 272.007 52.52 272.21 108.996 272.464 108.996 L 280.104 108.996 Z" fill-opacity=".52809" style="" transform="matrix(0, -1, 1, 0, 519.378494, 389.883499)"/>
</svg>