<?xml version="1.0" encoding="utf-8"?>
<svg viewBox="-167.365 -317.651 949.478 933.962" xmlns="http://www.w3.org/2000/svg">
  <rect x="-600.03" y="-12.339" width="953.58" height="945.5" rx="1.1948" ry="344.56" transform="matrix(1, 0, 0, 1, 429.358318, -307.990302)" style="fill: none;"/>
  <path d="m-119.02 594.85c-0.25384 0-0.45703 56.479-0.45703 126.63v94.227c0 62.654 0.16324 114.09 0.3789 124.44l355.76-345.3h-355.68z" fill-opacity=".61236" transform="matrix(1, 0, 0, 1, 429.358318, -307.990302)" style="fill: rgb(44, 41, 37);"/>
  <path d="m-11.664 585.67c-0.25384 0-0.45703 56.479-0.45703 126.63v94.227c0 62.654 0.16324 114.09 0.37891 124.44l355.76-345.3h-355.68z" fill-opacity=".41573" transform="matrix(1, 0, 0, 1, 429.358318, -307.990302)" style="fill: rgb(44, 41, 37);"/>
  <path d="m345.46 585.67-357.15 346.64c0.01031 0.18982 0.02076 0.84765 0.03125 0.84765h364.76c0.25383 0 0.45703-56.479 0.45703-126.63v-94.227c0-70.154-0.2032-126.63-0.45703-126.63h-7.6406z" fill-opacity=".83708" transform="matrix(1, 0, 0, 1, 429.358318, -307.990302)" style="fill: rgb(243, 217, 64);"/>
  <path d="m75.531 488.7-357.15 346.64c0.0103 0.18982 0.0208 0.84765 0.0312 0.84765h364.76c0.25383 0 0.45703-56.479 0.45703-126.63v-94.227c0-70.154-0.2032-126.63-0.45703-126.63h-7.6406z" fill-opacity=".67416" transform="matrix(1, 0, 0, 1, 429.358318, -307.990302)" style="fill: rgb(243, 217, 64);"/>
  <path d="m-125.08 526.16c-0.25384 0-0.45703 56.479-0.45703 126.63v94.227c0 62.654 0.16324 114.09 0.3789 124.44l355.76-345.3h-355.68z" fill-opacity=".48315" transform="matrix(1, 0, 0, 1, 429.358318, -307.990302)" style="fill: rgb(243, 217, 64);"/>
  <path d="m-237.62 585.67-357.15 346.64c0.0103 0.18982 0.0208 0.84765 0.0312 0.84765h364.76c0.25383 0 0.45703-56.479 0.45703-126.63v-94.227c0-70.154-0.2032-126.63-0.45703-126.63h-7.6406z" fill-opacity=".67416" transform="matrix(1, 0, 0, 1, 429.358318, -307.990302)" style="fill: rgb(44, 41, 37);"/>
  <path d="m-170.95 373.54-357.15 346.64c0.0103 0.18982 0.0208 0.84765 0.0312 0.84765h364.76c0.25383 0 0.45703-56.479 0.45703-126.63v-94.227c0-70.154-0.2032-126.63-0.45703-126.63h-7.6406z" fill-opacity=".67416" transform="matrix(1, 0, 0, 1, 429.358318, -307.990302)" style="fill: rgb(243, 217, 64);"/>
  <path d="m-597.24-13.242c-0.57464 0-1.0346 127.86-1.0346 286.67v213.31c0 141.84 0.36954 258.28 0.85775 281.71l805.37-781.68h-805.19z" fill-opacity=".67416" transform="matrix(1, 0, 0, 1, 429.358318, -307.990302)" style="fill: rgb(243, 217, 64);"/>
  <path d="m-21.443 96.758-357.15 346.64c0.0103 0.18982 0.0208 0.84765 0.0312 0.84765h364.76c0.25383 0 0.45703-56.479 0.45703-126.63v-94.227c0-70.154-0.2032-126.63-0.45703-126.63h-7.6406z" fill-opacity=".67416" transform="matrix(1, 0, 0, 1, 429.358318, -307.990302)" style="fill: rgb(44, 41, 37);"/>
  <path d="m202.81 30.088-357.15 346.64c0.0103 0.18982 0.0208 0.84765 0.0312 0.84765h364.76c0.25383 0 0.45703-56.479 0.45703-126.63v-94.227c0-70.154-0.2032-126.63-0.45703-126.63h-7.6406z" fill-opacity=".67416" transform="matrix(1, 0, 0, 1, 429.358318, -307.990302)" style="fill: rgb(44, 41, 37);"/>
  <path d="m-77.552 141.2 357.15 346.64c-0.0103 0.18982-0.0208 0.84765-0.0312 0.84765h-364.76c-0.25383 0-0.45703-56.479-0.45703-126.63v-94.227c0-70.154 0.2032-126.63 0.45703-126.63h7.6406z" fill-opacity=".52809" transform="matrix(1, 0, 0, 1, 429.358318, -307.990302)" style="fill: rgb(243, 217, 64);"/>
</svg>