<?xml version="1.0" encoding="utf-8"?>
<svg version="1.0" width="563.000000pt" height="573.000000pt" viewBox="0 0 563.000000 573.000000" preserveAspectRatio="xMidYMid meet" xmlns="http://www.w3.org/2000/svg" xmlns:bx="https://boxy-svg.com">
  <g transform="translate(0.000000,573.000000) scale(0.100000,-0.100000)">
    <path d="M3068 5348 l-38 -22 0 -268 0 -269 -37 8 c-130 27 -245 -27 -293 -139 -26 -60 -24 -151 3 -205 15 -29 15 -31 -8 -53 -30 -28 -88 -137 -80 -150 12 -20 24 -9 56 49 17 33 39 67 49 76 17 15 21 14 60 -14 53 -38 131 -55 191 -42 60 14 59 14 59 -16 0 -24 9 -32 58 -56 31 -15 81 -43 111 -61 l55 -34 -41 -11 c-96 -26 -153 -93 -153 -179 0 -46 9 -75 56 -175 63 -136 80 -196 89 -317 4 -47 9 -89 12 -93 3 -5 14 0 25 10 20 17 21 17 37 -6 9 -14 24 -34 34 -45 17 -21 17 -21 50 17 l33 38 29 -31 c36 -38 50 -38 70 0 18 35 23 36 41 13 7 -10 15 -15 19 -11 4 3 13 57 20 120 14 118 35 193 91 316 18 39 30 72 26 72 -3 0 -1 5 5 11 8 8 111 -47 376 -200 l365 -212 41 17 41 16 0 532 0 531 -690 399 c-380 219 -698 400 -708 402 -9 2 -34 -6 -54 -18z m730 -389 c372 -215 681 -395 686 -400 11 -10 -20 -38 -41 -39 -6 0 -321 178 -698 397 l-687 396 23 18 c13 10 27 19 32 19 4 0 312 -176 685 -391z m-48 -57 l685 -397 3 -509 c2 -471 1 -508 -15 -502 -26 10 -697 398 -709 410 -6 6 -8 21 -5 33 6 21 27 10 326 -163 176 -102 326 -188 333 -191 9 -4 12 89 12 444 l0 450 -632 365 -633 366 -5 -243 -5 -243 -27 23 -28 24 0 266 c0 146 3 265 8 264 4 0 315 -179 692 -397z m48 -102 l562 -325 0 -436 0 -437 -324 186 c-215 124 -326 194 -330 207 -7 27 -2 29 34 10 35 -18 56 -9 62 26 3 17 15 12 106 -41 57 -33 108 -60 113 -60 5 0 9 90 9 213 l0 212 -277 160 c-152 88 -280 162 -285 163 -4 2 -8 -95 -8 -215 l0 -218 75 -40 c41 -22 75 -43 75 -47 0 -14 -50 -20 -80 -10 -17 6 -58 14 -93 18 -52 5 -83 18 -189 78 l-127 71 -1 49 c0 32 8 66 22 95 15 31 22 65 22 101 0 36 -7 70 -22 101 -21 43 -22 58 -22 288 l0 242 58 -33 c32 -18 311 -179 620 -358z m-839 -104 c12 -11 21 -23 21 -27 0 -5 -22 -15 -48 -23 -63 -18 -125 -50 -184 -93 l-48 -35 0 49 c1 61 36 134 71 145 13 4 56 6 96 5 54 -2 76 -7 92 -21z m75 -45 c3 -5 10 -51 15 -101 9 -78 7 -100 -7 -143 -9 -28 -22 -52 -28 -54 -7 -3 -5 11 6 34 10 21 21 50 24 64 l6 26 -57 -29 c-31 -15 -67 -28 -80 -28 -24 0 -24 1 11 43 44 54 75 122 76 165 0 31 21 45 34 23z m710 -147 c184 -106 261 -155 267 -172 13 -34 12 -382 -2 -382 -14 0 -197 108 -205 121 -3 6 -2 15 2 19 5 5 42 -10 84 -34 l75 -44 3 151 c1 83 1 156 -2 162 -4 11 -436 265 -449 265 -4 0 -7 -71 -7 -157 l0 -158 75 -43 c70 -41 86 -62 47 -62 -9 0 -48 20 -87 43 l-70 42 -3 203 c-1 112 1 202 5 199 5 -2 124 -71 267 -153z m-754 119 c-1 -41 -32 -102 -80 -155 -23 -27 -38 -48 -34 -48 4 0 -5 -13 -21 -30 -16 -16 -33 -30 -39 -30 -5 0 3 13 18 29 29 30 27 34 -15 44 -14 4 -44 20 -68 37 -49 36 -47 41 25 91 42 28 177 88 202 89 7 0 12 -12 12 -27z m767 -181 l203 -117 0 -144 c0 -131 -1 -143 -17 -137 -10 4 -89 49 -178 100 -88 51 -179 104 -202 117 l-43 24 0 144 c0 131 1 143 17 137 9 -4 108 -60 220 -124z m-530 -201 c109 -63 123 -80 64 -81 -13 0 -72 28 -132 62 -105 60 -109 63 -109 96 0 24 8 40 28 57 l27 23 5 -46 5 -46 112 -65z m342 -121 c28 -13 67 -40 86 -61 118 -131 -83 -279 -338 -248 -88 11 -159 42 -202 90 -67 75 -37 157 80 214 95 47 271 49 374 5z"/>
    <path d="M3257 4120 c-115 -37 -166 -106 -134 -183 46 -109 291 -154 436 -80 91 47 122 114 82 179 -54 89 -241 130 -384 84z"/>
    <path d="M2177 5115 c-4 -10 -20 -15 -47 -15 -39 0 -40 -1 -40 -35 0 -31 3 -35 35 -41 l35 -6 2 -281 3 -281 33 -19 c18 -11 34 -18 35 -16 2 2 0 156 -3 343 -5 331 -5 339 -26 353 -19 12 -22 12 -27 -2z"/>
    <path d="M1916 5020 c4 -16 4 -36 1 -45 -5 -13 -11 -12 -42 6 l-35 21 0 -35 c0 -29 6 -38 35 -56 32 -19 35 -24 35 -69 0 -43 3 -50 25 -60 35 -16 35 -17 35 26 0 51 7 56 47 31 l33 -21 0 29 c0 22 -8 32 -38 48 -35 19 -37 23 -40 72 -2 41 -8 56 -25 68 -31 22 -37 19 -31 -15z"/>
    <path d="M2561 4117 c-21 -67 -41 -156 -60 -272 -34 -207 -34 -215 -17 -215 18 0 18 3 41 155 14 93 53 279 71 336 2 9 -2 19 -10 22 -10 4 -18 -4 -25 -26z"/>
    <path d="M3880 3553 l0 -208 -107 0 c-129 0 -52 37 -688 -330 l-480 -278 -78 -1 -77 -1 0 72 0 71 -35 0 -35 0 7 -56 c11 -89 10 -96 -12 -100 -57 -10 -158 -58 -200 -94 -53 -47 -75 -84 -84 -145 l-6 -44 -127 -74 -127 -74 5 42 c26 220 32 303 24 311 -5 5 -13 7 -16 3 -4 -4 -16 -89 -27 -189 -11 -105 -24 -186 -31 -190 -6 -4 -375 -218 -821 -475 -921 -533 -867 -493 -873 -627 -3 -54 0 -81 13 -105 13 -25 14 -36 4 -47 -9 -11 -8 -14 9 -14 12 0 25 -6 29 -12 4 -7 17 -18 28 -25 447 -264 1564 -905 1598 -917 68 -23 151 -20 217 7 66 28 3430 1968 3481 2008 47 37 72 89 77 161 4 48 0 67 -22 112 -15 30 -41 65 -59 79 -18 13 -360 215 -760 447 l-727 423 0 213 c0 201 -1 214 -19 224 -11 5 -22 10 -25 10 -3 0 -7 -309 -8 -687 -2 -538 -6 -687 -15 -691 -10 -3 -13 141 -13 697 0 456 -3 702 -10 706 -7 4 -10 -66 -10 -202z m-32 -244 l32 -11 0 -438 0 -438 -142 -82 c-79 -45 -151 -89 -160 -98 -26 -22 -25 -105 1 -129 11 -10 85 -56 166 -102 112 -64 155 -84 183 -84 29 0 70 19 172 78 204 118 191 106 188 177 l-3 61 -157 91 -158 91 0 407 c0 225 2 408 3 408 2 0 330 -189 728 -420 470 -273 734 -431 752 -452 24 -29 27 -40 25 -90 -2 -48 -7 -63 -28 -82 -14 -13 -788 -464 -1720 -1001 -938 -541 -1705 -989 -1717 -1004 -42 -50 -68 -73 -93 -83 -41 -17 -120 -9 -175 16 -54 25 -1457 836 -1542 892 -77 50 -108 122 -86 203 6 23 7 23 14 5 6 -16 8 -15 8 9 1 16 14 41 34 62 20 21 322 201 815 485 431 248 790 454 799 457 13 5 14 -6 8 -86 -5 -61 -4 -91 3 -91 6 0 13 38 17 88 3 48 7 93 8 101 2 15 257 165 265 156 5 -5 3 -657 -2 -662 -1 -1 -31 7 -66 18 -36 11 -103 23 -148 26 l-84 6 7 64 c4 41 3 63 -4 63 -10 0 -19 -36 -23 -100 -3 -33 -5 -35 -59 -45 -67 -14 -172 -62 -217 -100 -18 -15 -43 -46 -55 -69 -21 -39 -22 -51 -22 -321 0 -210 3 -286 13 -302 10 -19 10 -23 0 -24 -7 0 -3 -4 10 -9 12 -5 22 -14 22 -19 0 -31 190 -131 249 -131 15 0 21 -3 14 -8 -14 -9 155 -7 222 2 28 4 70 14 95 23 76 28 190 108 190 134 0 6 5 7 12 3 7 -4 8 -3 4 5 -4 6 -3 18 3 24 6 8 12 113 15 267 5 300 3 270 17 270 5 0 7 -5 3 -12 -4 -6 -3 -8 4 -4 6 3 36 -1 68 -9 32 -8 78 -15 102 -15 24 0 53 -5 64 -11 15 -8 19 -8 14 0 -5 7 10 11 46 12 29 1 56 1 59 1 3 -1 41 12 84 28 43 16 83 26 88 23 6 -3 8 -2 4 3 -3 5 16 27 43 49 26 22 54 55 61 73 7 17 15 32 18 32 3 0 6 183 6 408 0 400 0 408 -22 448 -40 74 -131 136 -247 166 l-48 13 488 281 c552 318 529 305 569 315 36 10 119 3 163 -12z m-1146 -619 c177 -54 268 -183 210 -297 -56 -108 -201 -174 -387 -175 -150 -1 -259 32 -340 104 -153 134 -57 321 198 382 23 5 27 3 27 -14 0 -13 -9 -22 -27 -27 -205 -51 -266 -208 -123 -312 70 -51 131 -66 260 -66 129 0 190 15 260 66 186 135 27 329 -270 329 -54 0 -70 3 -70 14 0 8 6 17 13 20 24 11 185 -4 249 -24z m-47 -42 c86 -21 185 -94 185 -135 0 -10 -12 -4 -39 20 -54 49 -138 78 -246 86 -73 5 -90 9 -93 23 -2 11 5 18 20 21 30 5 123 -2 173 -15z m-15 -54 c104 -24 200 -94 200 -144 0 -24 -54 -86 -91 -106 l-29 -14 11 27 c7 18 7 29 0 31 -5 2 -7 18 -4 36 7 45 -9 72 -59 97 -42 22 -111 23 -163 3 -20 -7 -20 -7 -1 14 12 14 17 31 14 47 -5 22 -2 25 26 25 17 0 60 -7 96 -16z m-140 -9 c16 -20 -3 -45 -34 -44 l-21 0 21 9 c24 9 41 30 25 30 -5 0 -13 -4 -16 -10 -3 -5 -19 -7 -35 -3 -42 8 -38 -10 8 -37 34 -20 42 -21 94 -12 115 21 207 -39 152 -100 -15 -16 -15 -18 0 -24 9 -3 13 -10 10 -15 -3 -5 -13 -5 -25 1 -13 8 -31 7 -58 -1 -23 -7 -58 -9 -86 -5 -39 6 -44 10 -34 22 7 9 32 14 68 14 l56 1 -50 26 c-43 23 -63 27 -136 27 -71 1 -91 5 -108 20 -24 22 -27 48 -7 66 8 6 12 18 9 27 -5 12 -1 14 14 9 11 -4 31 -2 44 3 37 15 95 13 109 -4z m-204 -51 c-20 -78 42 -129 147 -122 53 4 58 3 40 -9 -14 -9 -19 -21 -16 -38 7 -32 77 -48 145 -34 32 7 53 7 65 0 35 -19 -34 -35 -157 -35 -97 0 -125 4 -175 24 -69 27 -145 95 -145 130 0 21 78 110 96 110 4 0 3 -12 0 -26z m1584 -139 c0 -3 -9 -14 -20 -25 -16 -16 -20 -33 -20 -93 0 -49 5 -80 15 -94 17 -24 71 -39 104 -28 43 13 51 32 51 118 0 69 -3 84 -22 104 -12 13 -17 23 -12 23 5 0 75 -38 154 -84 98 -56 145 -89 145 -101 0 -27 -299 -197 -347 -198 -51 0 -343 168 -343 198 0 15 35 40 140 102 134 79 155 89 155 78z m-1684 -97 c58 -40 127 -68 202 -82 37 -7 66 -15 65 -19 -2 -4 -3 -21 -3 -38 0 -31 -1 -31 -37 -25 -172 31 -294 118 -309 222 l-6 39 25 -35 c14 -20 42 -48 63 -62z m58 -123 c80 -38 162 -56 266 -56 154 0 279 43 360 123 40 41 42 42 26 12 -59 -119 -309 -193 -517 -154 -108 21 -223 90 -256 154 -15 29 -13 29 27 -12 24 -23 66 -53 94 -67z m-44 -14 c51 -35 109 -57 195 -75 l60 -12 -3 -34 c-2 -19 -5 -36 -6 -37 0 -1 -32 5 -69 13 -86 18 -161 55 -214 107 -24 23 -43 36 -43 30 0 -20 83 -86 144 -113 209 -94 491 -53 618 89 36 40 39 42 24 14 -59 -116 -234 -190 -426 -180 -157 8 -282 61 -345 147 -14 19 -25 29 -25 22 0 -25 75 -93 134 -122 58 -28 162 -60 196 -60 12 0 15 -8 12 -35 -5 -41 -16 -43 -105 -20 -150 39 -252 136 -245 234 2 22 7 37 12 33 6 -3 6 3 2 14 -4 10 -10 35 -13 54 l-6 35 29 -36 c16 -21 49 -51 74 -68z m1547 -79 c68 -38 134 -73 148 -76 20 -5 25 -13 25 -36 0 -21 -5 -30 -16 -30 -24 0 -334 179 -334 193 0 7 -3 23 -7 36 l-6 25 34 -21 c19 -12 89 -52 156 -91z m-1565 -123 c191 -140 524 -128 684 26 56 53 57 39 2 -22 -50 -54 -151 -105 -246 -123 -133 -26 -316 5 -416 72 -44 29 -106 106 -106 132 0 6 9 -3 20 -21 11 -18 39 -47 62 -64z m68 -82 c37 -19 97 -40 134 -47 l66 -12 0 -35 0 -36 -51 7 c-147 20 -280 115 -296 212 l-6 37 43 -46 c24 -27 71 -61 110 -80z m3 -92 c64 -30 180 -55 252 -55 80 0 203 27 265 57 30 16 74 47 98 70 37 37 40 39 28 14 -38 -72 -146 -134 -279 -157 -180 -33 -369 16 -465 120 -23 25 -42 40 -42 34 0 -21 92 -100 146 -125 29 -13 84 -30 121 -37 l68 -12 3 -37 c4 -43 -3 -45 -91 -22 -108 28 -202 88 -234 149 -21 39 -34 108 -20 99 6 -4 8 0 5 9 -4 9 16 -7 43 -34 27 -27 73 -60 102 -73z m-57 -94 c174 -115 456 -115 624 0 26 18 55 45 66 60 24 36 30 30 10 -9 -48 -93 -210 -162 -381 -163 -159 -1 -268 36 -352 117 -30 30 -53 48 -49 39 3 -8 1 -15 -3 -15 -5 0 -9 15 -8 34 l1 35 22 -33 c13 -19 44 -47 70 -65z m-436 59 c0 -13 -7 -20 -20 -20 -31 0 -145 -45 -175 -68 -70 -55 -92 -121 -61 -180 100 -192 552 -192 652 0 30 58 3 132 -66 183 -48 36 -155 66 -239 68 -60 2 -71 5 -71 20 0 15 10 17 73 17 160 0 318 -73 367 -171 79 -154 -91 -310 -355 -326 -290 -17 -513 154 -425 326 33 66 123 126 233 156 73 19 87 19 87 -5z m200 -101 c106 -24 199 -102 186 -155 -7 -27 -53 -76 -89 -96 -18 -9 -19 -8 -15 16 3 15 2 29 -3 31 -4 3 -5 20 -2 38 11 70 -82 128 -172 107 -59 -14 -74 -13 -51 5 13 10 17 23 14 44 l-4 30 45 -5 c25 -3 66 -10 91 -15z m-160 -13 c-6 -8 -30 -16 -53 -18 l-41 -3 51 -28 c42 -22 56 -25 78 -17 96 36 228 -31 172 -88 -15 -15 -15 -17 1 -36 16 -18 16 -19 -8 -12 -29 9 -28 9 -97 0 -29 -4 -65 -3 -80 1 -27 6 -27 7 -8 21 12 9 31 12 51 8 56 -10 60 6 9 36 -40 23 -53 26 -79 19 -47 -14 -87 -10 -133 11 -34 15 -43 24 -43 43 0 14 7 30 15 37 8 7 12 16 10 20 -6 10 34 16 114 18 46 2 52 0 41 -12z m501 -37 c26 -10 70 -21 98 -25 l51 -7 0 -39 0 -39 -37 7 c-81 14 -163 45 -163 60 0 8 -7 29 -16 46 -15 29 -15 31 2 23 11 -4 40 -16 65 -26z m-698 -23 c-11 -69 42 -109 141 -108 44 1 56 -2 47 -11 -6 -6 -11 -21 -11 -33 0 -39 105 -57 170 -30 9 4 24 0 35 -8 17 -12 15 -14 -34 -25 -120 -25 -271 -7 -359 45 -44 26 -82 75 -82 107 0 18 73 97 89 97 6 0 7 -15 4 -34z m-112 -210 c48 -41 122 -73 209 -92 l76 -16 -4 -34 c-5 -40 -17 -42 -105 -19 -141 37 -247 132 -247 222 l0 28 19 -30 c10 -17 33 -44 52 -59z m41 -116 c177 -102 432 -101 599 1 27 17 60 45 75 62 l25 32 -15 -31 c-65 -133 -325 -208 -536 -155 -105 26 -184 74 -227 136 -41 59 -44 83 -3 27 16 -23 53 -55 82 -72z m29 -59 c33 -16 93 -37 134 -46 l75 -17 0 -34 c0 -29 -4 -34 -23 -34 -35 0 -133 28 -177 50 -80 41 -150 124 -150 179 0 17 8 12 41 -24 23 -24 68 -58 100 -74z m13 -95 c199 -94 486 -58 618 77 40 41 40 41 24 10 -27 -53 -108 -109 -199 -139 -65 -21 -102 -26 -182 -27 -163 -1 -285 42 -365 130 -42 45 -55 44 -18 -2 46 -58 171 -120 267 -132 l51 -6 0 -38 c0 -45 0 -45 -88 -24 -110 26 -206 86 -239 149 -21 39 -34 108 -20 99 6 -4 8 0 5 9 -4 9 15 -6 41 -31 25 -26 73 -60 105 -75z m637 -49 c-29 -47 -80 -84 -165 -120 -62 -27 -86 -31 -186 -35 -86 -3 -132 0 -180 12 -113 29 -205 87 -237 149 -15 30 -14 30 25 -10 81 -83 199 -124 357 -124 160 0 289 44 361 124 22 24 41 42 43 41 2 -2 -6 -18 -18 -37z m-692 -87 c54 -37 135 -67 200 -76 l51 -7 0 -39 0 -39 -37 7 c-75 13 -160 44 -205 74 -56 37 -108 111 -108 153 l0 31 28 -38 c15 -21 47 -51 71 -66z"/>
    <path d="M4667 3693 c-4 -3 -7 -27 -7 -53 0 -35 7 -58 31 -93 34 -51 52 -133 28 -125 -7 2 -18 26 -24 53 -14 65 -35 72 -35 10 0 -70 30 -114 78 -115 20 0 22 5 22 55 0 43 -8 72 -36 130 -21 44 -33 82 -30 92 10 24 28 2 35 -43 7 -45 31 -59 31 -17 0 50 -11 72 -47 93 -39 23 -37 22 -46 13z"/>
    <path d="M4794 3608 c-14 -23 -5 -251 11 -275 19 -29 49 -45 70 -37 12 5 15 18 13 62 -4 67 -28 87 -28 22 0 -46 -19 -52 -31 -9 -11 37 -10 197 0 204 14 8 25 -14 31 -64 7 -65 30 -66 30 -1 0 45 -4 55 -32 81 -35 31 -52 36 -64 17z"/>
    <path d="M4926 3518 c-11 -41 -6 -226 6 -253 13 -30 58 -57 75 -47 16 10 27 139 18 217 -6 60 -10 68 -38 86 -41 25 -53 24 -61 -3z"/>
    <path d="M2456 3493 c-3 -16 -10 -109 -16 -208 -6 -99 -12 -203 -14 -232 -4 -48 3 -63 30 -63 2 0 4 30 4 68 0 71 15 307 26 405 5 47 3 57 -9 57 -9 0 -18 -12 -21 -27z"/>
    <path d="M2120 3471 c-14 -4 -26 -14 -28 -23 -2 -13 5 -15 41 -11 40 5 47 2 80 -32 41 -42 89 -151 113 -252 28 -124 34 -143 49 -143 20 0 19 8 -9 126 -61 250 -143 362 -246 335z"/>
    <path d="M5060 3326 c0 -131 2 -155 16 -160 9 -3 18 -6 20 -6 2 0 4 32 4 71 0 62 2 70 15 59 10 -8 15 -36 17 -88 3 -65 6 -77 21 -80 18 -4 18 2 12 71 -4 41 -8 110 -9 153 -1 70 -3 80 -23 90 -13 6 -31 18 -41 27 -10 10 -22 17 -25 17 -4 0 -7 -69 -7 -154z"/>
    <path d="M1973 3293 c-32 -85 -59 -190 -88 -346 -29 -161 -30 -177 -10 -177 8 0 15 3 15 6 0 4 9 60 20 126 25 142 71 325 98 390 11 25 18 49 15 52 -16 16 -30 1 -50 -51z"/>
    <path d="M5510 3191 c-14 -27 -13 -84 2 -99 21 -21 28 -13 28 29 0 28 4 39 13 36 19 -7 10 -77 -17 -127 -13 -25 -27 -59 -31 -77 -6 -29 -3 -33 38 -57 52 -31 57 -32 57 -7 0 11 -12 23 -30 31 -37 15 -37 21 -4 77 15 26 28 67 31 98 5 52 4 56 -27 85 -38 35 -46 37 -60 11z"/>
    <path d="M 5205.254 3246.183 C 5213.032 3127.964 5165.537 3114.041 5188.501 3109.528 C 5203.251 3106.822 5251.183 3061.569 5254.42 3061.569 C 5256.078 3061.569 5282.018 3028.422 5301.208 3038.53 C 5319.548 3048.19 5306.695 3058.165 5305.564 3075.364 C 5303.607 3105.086 5256.411 3108.421 5234.534 3136.728 C 5215.227 3161.708 5228.262 3178.17 5240.496 3186.621 C 5257.478 3198.353 5299.356 3144.475 5306.905 3149.753 C 5332.851 3167.884 5317.562 3182.68 5325.36 3201.322 C 5337.147 3229.498 5270.823 3226.333 5257.012 3288.601 C 5248.1 3325.602 5338.346 3240.898 5334.172 3279.703 C 5328.397 3342.874 5355.728 3293.883 5346.549 3310.643 C 5333.789 3333.945 5316.557 3326.888 5299.831 3335.009 C 5283.048 3344.034 5226.489 3354.218 5221.632 3354.218 C 5215.156 3354.218 5200.206 3322.89 5205.254 3246.183 Z" style="" transform="matrix(0.999731, 0.023208, -0.023208, 0.999731, 80.280026, -121.282062)" bx:origin="0.5 1.138"/>
    <path d="M 5424.28 3170.034 C 5426.931 3158.865 5426.931 3144.904 5424.942 3138.621 C 5421.629 3129.546 5417.652 3130.244 5397.107 3142.81 L 5373.91 3157.469 L 5373.91 3133.037 C 5373.91 3112.793 5377.886 3106.51 5397.107 3093.945 C 5418.315 3080.682 5420.303 3077.191 5420.303 3045.779 C 5420.303 3015.762 5422.291 3010.875 5436.872 3003.895 C 5460.069 2992.726 5460.069 2992.027 5460.069 3022.044 C 5460.069 3057.646 5464.708 3061.136 5491.219 3043.684 L 5513.09 3029.025 L 5513.09 3049.269 C 5513.09 3064.626 5507.788 3071.607 5487.905 3082.776 C 5464.708 3096.039 5463.383 3098.832 5461.394 3133.037 C 5460.069 3161.657 5456.092 3172.128 5444.825 3180.505 C 5424.28 3195.863 5420.303 3193.768 5424.28 3170.034 Z" style=""/>
  </g>
</svg>