<?xml version="1.0" standalone="no"?>
<!DOCTYPE svg PUBLIC "-//W3C//DTD SVG 20010904//EN"
 "http://www.w3.org/TR/2001/REC-SVG-20010904/DTD/svg10.dtd">
<svg version="1.0" xmlns="http://www.w3.org/2000/svg"
 width="877.000000pt" height="1006.000000pt" viewBox="0 0 877.000000 1006.000000"
 preserveAspectRatio="xMidYMid meet">
<metadata>
Created by potrace 1.16, written by Peter Selinger 2001-2019
</metadata>
<g transform="translate(0.000000,1006.000000) scale(0.100000,-0.100000)"
>
<path d="M3220 9461 c-91 -14 -144 -62 -179 -164 -42 -120 -36 -264 14 -375
13 -28 117 -171 230 -316 154 -197 216 -269 242 -281 52 -25 181 -13 240 21
77 45 123 159 123 303 -1 97 -11 152 -41 215 -28 61 -417 556 -458 583 -35 24
-78 27 -171 14z m-13 -61 c-92 -108 -100 -363 -16 -495 37 -58 368 -486 412
-532 l31 -33 -42 0 c-58 0 -81 23 -312 320 -210 271 -228 304 -237 435 -7 95
13 187 55 254 27 44 80 81 115 81 17 0 16 -3 -6 -30z m486 -475 c36 -17 89
-91 107 -149 7 -21 12 -73 12 -116 -1 -196 -124 -273 -221 -139 -92 126 -78
368 24 410 30 12 44 11 78 -6z"/>
<path d="M7185 9340 c-77 -4 -156 -10 -175 -15 -43 -9 -128 -65 -154 -101 -10
-14 -101 -185 -202 -379 -136 -262 -184 -363 -184 -389 0 -45 65 -150 102
-166 30 -13 524 4 588 20 56 15 128 66 158 113 15 24 61 109 102 189 l75 146
44 6 c24 3 72 6 107 6 l63 0 7 36 c12 63 -1 128 -35 184 l-33 53 26 57 c14 32
26 68 26 81 0 26 -62 137 -88 157 -17 13 -179 14 -427 2z m413 -32 c22 -18 13
-65 -28 -144 -22 -43 -40 -79 -40 -80 0 -1 13 -5 29 -9 16 -3 37 -15 46 -25
22 -24 35 -83 28 -126 -5 -31 -8 -34 -42 -34 -20 0 -66 -3 -103 -7 l-68 -6
-86 -166 c-100 -194 -119 -222 -179 -257 -51 -30 -120 -38 -426 -49 -211 -8
-229 -4 -229 48 1 41 343 704 395 765 64 74 95 84 295 93 358 18 382 17 408
-3z"/>
<path d="M7153 9185 c-56 -28 -93 -75 -93 -118 0 -16 13 -36 37 -57 30 -27 42
-31 71 -26 72 11 147 89 134 138 -5 19 -6 18 -20 -8 -8 -16 -22 -37 -31 -48
-40 -45 -151 -76 -151 -41 0 10 10 15 31 15 51 0 129 60 129 100 0 36 -114
-20 -144 -71 -22 -37 -36 -37 -36 1 0 37 58 96 112 112 34 10 42 9 68 -11 31
-22 39 -17 18 12 -23 30 -68 30 -125 2z"/>
<path d="M7035 8951 c-46 -21 -79 -54 -94 -92 -12 -32 -5 -65 15 -73 17 -6 17
-5 5 28 -20 50 59 129 130 130 57 1 62 -20 8 -34 -42 -12 -119 -75 -119 -99 0
-15 34 -14 74 3 33 14 86 72 86 94 0 7 5 12 10 12 18 0 11 29 -9 40 -28 15
-61 12 -106 -9z"/>
<path d="M6889 8701 c-43 -27 -79 -79 -79 -114 0 -17 29 -51 37 -43 2 2 -1 13
-8 25 -32 50 62 145 137 139 53 -4 53 -22 0 -36 -47 -12 -116 -71 -116 -97 0
-43 115 12 145 69 11 20 23 36 27 36 13 0 9 18 -8 34 -25 25 -84 20 -135 -13z"/>
<path d="M1565 9265 c-22 -8 -215 -84 -430 -169 -316 -126 -395 -161 -417
-186 -33 -36 -35 -68 -8 -103 29 -37 1065 -928 1103 -949 17 -10 42 -18 54
-18 25 0 842 321 880 345 35 24 46 61 31 106 -11 31 -99 111 -533 484 -286
246 -533 458 -550 470 -40 31 -82 37 -130 20z m110 -30 c64 -42 1081 -929
1083 -945 2 -11 -6 -25 -20 -34 -43 -28 -837 -336 -866 -336 -16 0 -44 12 -64
28 -20 15 -268 227 -552 472 -522 450 -540 468 -503 498 11 9 762 311 827 332
29 10 67 4 95 -15z"/>
<path d="M1260 9015 c-228 -90 -416 -168 -418 -173 -3 -9 896 -790 954 -828
18 -12 61 2 439 149 231 89 420 166 420 172 0 10 -949 831 -969 838 -6 2 -198
-69 -426 -158z m903 -262 c259 -223 474 -408 476 -410 2 -1 2 -6 -1 -9 -15
-14 -805 -314 -822 -312 -21 3 -966 810 -959 818 8 10 798 319 816 319 9 1
230 -182 490 -406z"/>
<path d="M1852 8807 l-54 -22 7 -82 c4 -46 3 -83 -2 -83 -4 0 -86 24 -180 54
l-173 54 -80 -30 c-71 -28 -101 -48 -69 -48 7 0 156 -45 331 -101 176 -55 321
-99 323 -97 2 2 -21 367 -24 376 -2 6 -30 -2 -79 -21z m83 -193 c5 -100 4
-144 -3 -144 -13 0 -582 179 -599 189 -8 4 16 17 55 30 l68 24 164 -52 c91
-28 174 -54 184 -57 18 -6 19 -2 13 83 l-5 89 51 20 52 20 7 -29 c3 -17 9 -94
13 -173z"/>
<path d="M5585 9113 c-25 -7 -732 -291 -766 -309 -43 -22 -114 -96 -136 -144
-14 -30 -30 -106 -47 -224 -14 -98 -26 -181 -26 -184 0 -3 -40 -2 -89 1 -102
6 -432 -7 -560 -24 -329 -41 -629 -117 -877 -220 l-96 -40 -74 16 c-40 9 -86
14 -102 10 -19 -4 -58 -35 -106 -84 -65 -68 -76 -84 -76 -114 0 -31 -7 -40
-78 -95 -84 -65 -186 -169 -250 -254 -57 -75 -263 -421 -295 -495 -54 -122
-70 -205 -70 -358 0 -155 16 -232 72 -365 42 -97 29 -79 956 -1410 595 -855
828 -1198 857 -1260 63 -137 162 -212 348 -263 108 -29 352 -29 461 0 167 46
272 117 327 221 18 33 32 62 32 65 0 3 -39 -17 -87 -44 -49 -27 -115 -58 -148
-69 -86 -28 -243 -50 -366 -50 -102 0 -106 -1 -119 -25 -16 -30 -67 -55 -112
-55 -45 0 -166 59 -218 106 -23 21 -53 60 -66 87 l-25 49 31 -19 c17 -10 40
-26 51 -36 25 -23 114 -60 194 -81 82 -21 154 -22 189 -4 l29 15 -62 7 c-90
10 -206 42 -280 76 -140 66 -103 18 -868 1118 -388 559 -727 1046 -752 1082
l-46 65 70 -56 c362 -291 875 -486 1495 -569 115 -16 234 -23 457 -27 l301 -6
-4 -51 c-3 -28 -20 -310 -39 -626 -37 -611 -43 -664 -80 -777 -34 -99 -80
-169 -145 -217 -25 -18 -23 -18 75 -13 197 11 324 52 501 163 l72 45 868 1199
c488 674 889 1238 915 1286 173 320 151 659 -64 988 l-45 70 96 91 c54 51 112
105 131 121 60 50 71 112 27 152 -25 23 -687 311 -731 319 -24 4 -41 -2 -75
-29 l-45 -34 -99 55 c-55 30 -150 77 -210 103 -88 37 -110 51 -108 65 2 10 32
214 67 453 51 344 62 442 54 466 -6 20 -32 49 -68 78 -80 62 -110 73 -166 59z
m76 -34 c42 -22 41 -41 -22 -481 -67 -469 -72 -487 -154 -553 -56 -45 -59 -46
-453 -204 -383 -153 -418 -162 -448 -115 -17 24 -15 44 45 456 36 254 68 442
77 460 24 46 94 117 135 139 65 33 763 309 782 309 10 0 27 -5 38 -11z m-1053
-891 c-3 -22 -6 -23 -88 -20 -130 4 -449 -16 -605 -39 -239 -34 -451 -88 -665
-169 -102 -38 -106 -39 -155 -27 l-50 13 105 41 c303 118 574 177 990 216 19
2 133 5 253 5 l218 2 -3 -22z m1296 -290 c34 -17 89 -46 124 -65 l63 -35 -26
-28 -26 -28 -97 56 c-53 31 -146 78 -207 105 -60 27 -111 50 -113 52 -2 2 4
15 13 28 l16 25 97 -40 c52 -22 123 -53 156 -70z m-2561 -53 c258 -63 485
-123 505 -132 48 -23 110 -87 144 -149 39 -73 291 -950 284 -993 -7 -46 -32
-71 -71 -71 -47 0 -962 227 -1012 251 -47 23 -125 103 -153 158 -22 44 -280
935 -280 967 0 56 44 98 95 88 11 -2 231 -55 488 -119z m2360 50 c131 -58 313
-159 308 -171 -3 -5 -167 -161 -365 -348 -241 -226 -365 -349 -372 -370 -9
-23 -9 -38 0 -61 11 -27 44 -43 365 -182 216 -93 366 -153 386 -153 28 0 61
27 276 230 134 126 247 230 250 230 11 0 19 -60 19 -150 0 -232 -122 -456
-354 -649 -347 -289 -814 -469 -1391 -537 -163 -19 -663 -24 -720 -7 -28 9
-31 15 -61 130 -54 204 -102 534 -78 533 5 -1 36 -7 68 -15 32 -8 72 -11 87
-8 17 3 57 35 103 83 75 77 76 78 76 131 0 38 -28 151 -96 386 l-96 332 37 66
c80 143 223 304 355 399 l50 36 0 -33 c0 -42 18 -66 90 -122 48 -37 66 -45
101 -45 32 0 140 39 421 151 208 83 388 159 401 170 12 10 25 18 29 19 4 0 54
-20 111 -45z m-2963 -35 c0 -49 258 -930 287 -979 38 -65 86 -114 142 -144 34
-19 198 -64 547 -150 l497 -123 -43 -37 c-25 -21 -54 -37 -68 -37 -37 0 -987
237 -1019 254 -38 20 -96 78 -131 131 -21 32 -63 162 -160 501 -73 253 -132
476 -132 497 0 28 8 48 33 77 17 22 35 40 40 40 4 0 7 -14 7 -30z m3861 -131
c343 -149 374 -166 354 -199 -4 -6 -209 -202 -457 -435 -383 -360 -456 -425
-481 -425 -16 0 -176 64 -356 141 -400 173 -383 165 -379 192 2 14 173 182
457 449 389 367 458 428 484 428 16 0 186 -68 378 -151z m-3951 -54 l12 -35
-100 -95 c-149 -141 -244 -290 -283 -444 -22 -86 -27 -237 -9 -316 65 -296
306 -556 711 -769 414 -217 895 -326 1444 -326 278 0 502 23 745 76 629 138
1160 464 1340 824 69 139 92 263 77 425 l-9 90 32 28 c17 15 35 25 40 22 17
-11 40 -147 40 -242 -1 -228 -86 -421 -273 -619 -568 -601 -1822 -844 -2920
-568 -704 176 -1229 583 -1322 1022 -67 322 72 646 393 910 35 29 65 52 67 52
2 0 9 -16 15 -35z m-519 -626 c-6 -24 -11 -83 -11 -131 -1 -329 198 -639 565
-883 277 -183 609 -312 1000 -389 267 -52 435 -67 750 -67 423 0 786 55 1143
172 87 29 97 30 156 20 88 -16 272 -14 354 4 96 20 221 67 300 113 37 21 85
49 107 61 l40 23 -35 -32 c-199 -183 -532 -362 -878 -474 -343 -111 -685 -164
-1104 -173 -275 -6 -440 3 -688 38 -940 133 -1663 578 -1830 1128 -19 63 -22
88 -17 184 3 62 12 139 21 172 17 62 124 291 132 282 3 -2 0 -24 -5 -48z
m4723 -716 c-56 -164 -147 -305 -287 -445 -387 -385 -1044 -638 -1821 -699
-211 -16 -626 -7 -832 20 -359 46 -699 136 -967 256 -103 46 -105 47 -115 88
-6 23 -10 42 -9 43 1 2 38 -13 82 -33 823 -366 1972 -398 2845 -79 545 198
932 505 1089 864 17 39 32 76 32 84 1 7 3 6 6 -4 2 -9 -8 -52 -23 -95z"/>
<path d="M5260 8839 c-193 -37 -425 -270 -501 -502 -33 -100 -34 -233 -1 -294
59 -113 192 -137 347 -64 159 74 290 212 375 394 85 182 77 349 -20 430 -51
43 -109 54 -200 36z m160 -34 c113 -58 128 -240 35 -433 -137 -286 -444 -482
-610 -389 -55 30 -95 109 -95 187 0 152 91 339 232 478 70 69 98 90 173 129
97 51 200 62 265 28z"/>
<path d="M5180 8727 c-149 -62 -284 -209 -341 -373 -26 -74 -30 -186 -7 -229
96 -179 381 -78 545 193 73 122 96 293 47 359 -55 74 -145 92 -244 50z m190
-25 c47 -34 62 -78 57 -164 -11 -170 -155 -371 -324 -450 -195 -92 -312 31
-243 254 77 249 374 459 510 360z"/>
<path d="M4975 8515 c-20 -25 -35 -49 -33 -54 2 -4 38 -38 82 -76 91 -79 78
-81 195 26 l72 66 -18 39 c-9 21 -19 41 -20 43 -2 2 -25 -17 -52 -42 -28 -26
-54 -47 -60 -47 -5 0 -33 20 -62 45 -29 25 -56 45 -60 45 -3 0 -23 -20 -44
-45z m105 -30 c30 -25 58 -45 63 -45 4 0 28 19 53 42 37 34 47 39 55 27 5 -8
9 -17 9 -21 0 -10 -143 -138 -155 -138 -5 1 -39 27 -74 59 l-65 58 25 31 c13
17 26 31 29 31 3 1 30 -19 60 -44z"/>
<path d="M3233 7715 c-35 -35 -36 -37 -31 -98 5 -51 19 -89 81 -216 42 -85 87
-166 100 -180 14 -14 28 -36 31 -47 6 -21 4 -21 -69 -20 -74 1 -77 0 -105 -31
-51 -57 -67 -171 -31 -222 11 -15 37 -35 58 -44 58 -26 774 -198 795 -191 26
8 32 47 14 86 -9 18 -45 72 -82 120 -76 102 -153 162 -237 186 -69 19 -84 42
-68 106 6 25 6 82 0 165 -8 108 -14 135 -40 188 -62 129 -206 233 -322 233
-54 0 -62 -3 -94 -35z m155 -72 c68 -32 152 -114 187 -182 38 -77 61 -316 33
-360 -9 -14 -8 -27 4 -57 14 -36 21 -41 83 -61 89 -29 160 -84 234 -183 62
-83 71 -100 49 -100 -7 0 -170 39 -361 86 -316 78 -350 89 -377 116 -24 24
-30 38 -30 72 0 24 5 57 11 75 10 28 15 31 53 31 22 0 57 -5 76 -10 33 -10 37
-8 63 22 36 43 32 93 -13 144 -49 57 -172 319 -178 381 -4 48 -3 52 19 56 39
7 91 -3 147 -30z"/>
<path d="M4985 6554 c-175 -20 -329 -106 -376 -209 -24 -52 -24 -70 4 -162 28
-99 61 -133 148 -157 188 -53 467 59 525 210 13 33 14 52 7 81 l-10 38 -8 -30
c-13 -48 -65 -113 -119 -148 -98 -64 -184 -90 -301 -91 -94 -1 -157 19 -201
65 l-29 31 53 -28 c165 -85 488 7 567 162 11 22 24 42 28 45 14 10 -13 95 -39
122 -14 15 -37 33 -52 41 -40 21 -142 36 -197 30z m142 -39 c140 -42 156 -146
39 -251 -82 -75 -194 -116 -321 -118 -323 -5 -287 276 47 364 89 23 168 25
235 5z"/>
<path d="M4883 6441 c-101 -35 -157 -103 -134 -164 32 -83 230 -79 324 7 117
107 -15 218 -190 157z"/>
<path d="M5770 7434 c-220 -207 -400 -382 -400 -388 0 -11 665 -296 691 -296
18 0 804 735 804 752 0 9 -672 308 -692 308 -2 0 -183 -169 -403 -376z m753
215 c185 -79 337 -146 336 -149 -2 -11 -788 -740 -798 -740 -20 0 -682 283
-679 291 5 13 791 748 797 745 3 -1 158 -68 344 -147z"/>
<path d="M5964 7487 c-3 -8 -3 -47 -1 -88 l3 -74 2 78 c1 42 6 77 12 77 5 0
25 -8 45 -17 l35 -17 0 -78 c0 -43 4 -78 9 -78 5 0 73 23 152 50 l142 51 54
-23 c40 -16 50 -24 38 -30 -19 -11 -473 -168 -485 -168 -5 0 -11 35 -13 78
l-3 77 -2 -89 c-2 -80 0 -88 16 -81 9 4 130 45 267 92 138 47 254 89 258 93 4
3 -23 19 -61 34 l-69 28 -147 -51 -148 -51 3 77 4 77 -53 23 c-41 18 -54 20
-58 10z"/>
<path d="M7385 7814 c-220 -239 -200 -210 -179 -280 10 -33 22 -64 28 -70 12
-12 479 -118 495 -112 5 1 71 71 146 153 76 83 155 169 177 191 l40 41 -22 72
c-11 39 -22 71 -24 71 -2 0 -113 25 -246 55 -133 30 -245 55 -249 54 -3 0 -78
-79 -166 -175z m415 90 c113 -25 206 -47 207 -48 3 -3 -236 -267 -303 -336
l-24 -24 -220 49 c-121 27 -220 52 -220 57 0 4 72 86 161 182 108 117 166 173
177 170 9 -2 109 -24 222 -50z m-310 -387 l185 -42 13 -39 c7 -22 11 -42 10
-46 -2 -4 -68 8 -148 25 -80 18 -179 40 -221 50 -75 16 -76 17 -88 54 -6 21
-11 42 -11 46 0 9 38 2 260 -48z"/>
<path d="M7487 7761 c-53 -58 -93 -108 -89 -112 4 -4 64 -19 133 -34 l127 -28
64 69 c36 38 81 88 101 110 l37 41 -58 12 c-31 6 -93 20 -138 30 l-81 18 -96
-106z"/>
<path d="M1140 7700 c-146 -10 -274 -19 -285 -19 -15 -1 -30 -20 -57 -75 l-37
-74 159 -241 c146 -221 161 -241 187 -240 75 1 583 36 587 40 2 2 19 35 38 73
l35 70 -158 240 c-127 194 -162 241 -181 242 -13 1 -142 -7 -288 -16z m430
-227 c74 -114 136 -213 138 -220 2 -7 -5 -13 -15 -13 -10 0 -132 -7 -272 -16
-212 -13 -255 -14 -265 -2 -29 31 -278 419 -274 424 7 6 371 31 478 32 l75 1
135 -206z m-681 104 c19 -28 84 -127 143 -218 l109 -167 -23 -46 c-12 -25 -24
-46 -27 -46 -4 1 -70 99 -149 219 l-143 219 23 46 c12 25 24 46 27 46 4 0 21
-24 40 -53z"/>
<path d="M1161 7579 c-62 -5 -115 -10 -117 -12 -2 -2 147 -233 171 -264 2 -4
329 18 333 22 2 2 -36 62 -84 134 l-87 131 -51 -1 c-28 -1 -102 -6 -165 -10z
m339 -229 c0 -5 -23 -10 -52 -10 l-53 0 -37 57 -37 57 26 49 25 49 64 -96 c35
-52 64 -100 64 -106z"/>
<path d="M6785 4969 c-30 -27 -35 -37 -35 -74 0 -24 4 -46 9 -49 4 -3 11 -18
14 -33 3 -16 8 -35 12 -44 5 -13 -2 -18 -29 -23 -22 -4 -46 -19 -65 -41 -17
-19 -40 -35 -51 -35 -11 0 -20 -4 -20 -10 0 -5 -9 -10 -20 -10 -25 0 -26 -23
-5 -140 12 -70 19 -89 41 -107 l27 -21 0 -162 c0 -126 3 -163 14 -167 9 -4 13
-27 13 -80 0 -40 6 -133 14 -206 8 -73 17 -166 21 -207 l5 -76 -36 -42 c-41
-49 -41 -72 1 -84 23 -6 42 -3 78 14 26 12 47 27 47 35 0 7 3 12 8 12 40 -7
41 -4 35 134 -3 72 -3 129 0 126 4 -3 11 -59 17 -124 l10 -119 -35 -36 c-19
-20 -35 -46 -35 -58 0 -13 -6 -22 -15 -22 -8 0 -15 -7 -15 -15 0 -8 9 -15 20
-15 11 0 20 6 20 13 0 8 14 11 45 9 33 -3 54 2 80 18 19 12 35 25 35 30 0 5
10 10 23 12 l22 3 -4 326 -4 326 22 6 c22 5 22 7 16 134 -4 70 -8 134 -11 141
-2 7 8 56 21 109 43 166 34 237 -34 273 -36 19 -101 74 -101 86 0 3 9 17 20
31 50 64 30 141 -46 174 -63 26 -88 24 -129 -12z m283 -350 c8 -15 11 -41 7
-69 -9 -73 -66 -269 -85 -293 l-18 -22 -88 88 c-81 80 -87 89 -72 104 15 14
21 12 75 -36 33 -28 63 -51 66 -51 4 0 7 13 7 29 0 45 38 218 55 252 18 34 34
34 53 -2z m-92 -397 c23 2 34 13 53 48 16 32 21 37 15 15 -5 -16 -7 -75 -6
-131 l4 -101 -58 -11 c-103 -21 -155 -14 -172 23 -6 13 -17 51 -23 84 -18 84
-37 81 -41 -6 -2 -56 -6 -68 -21 -71 -38 -7 -42 10 -39 157 l3 140 35 -17 c31
-14 36 -14 44 -2 6 8 7 22 4 30 -3 8 35 -25 84 -73 76 -76 93 -88 118 -85z"/>
<path d="M1962 3956 c-26 -30 -32 -45 -32 -85 0 -38 5 -52 25 -71 28 -26 33
-60 10 -60 -8 0 -23 -4 -33 -9 -9 -5 -30 -13 -47 -17 -26 -8 -38 -25 -87 -125
-78 -160 -79 -169 -29 -247 35 -54 41 -70 41 -117 0 -53 -1 -56 -40 -80 -23
-14 -45 -37 -50 -51 -15 -38 -13 -237 3 -256 17 -22 78 -58 100 -58 15 0 17
14 17 160 0 92 -4 160 -9 160 -5 0 -19 -12 -30 -26 -18 -23 -21 -41 -21 -137
0 -109 0 -110 -20 -92 -18 16 -20 31 -20 131 l0 113 37 26 37 25 22 -27 c19
-24 22 -43 27 -202 4 -97 10 -242 13 -323 l7 -148 38 0 c53 0 59 17 59 156 0
65 5 147 11 183 9 48 9 81 1 126 -23 128 -24 135 -9 129 7 -2 19 -31 25 -64 6
-32 29 -111 52 -174 l42 -115 -10 -148 c-12 -170 -8 -183 50 -167 29 9 34 15
40 54 16 106 19 385 5 490 -8 58 -15 90 -16 73 -2 -49 -41 -39 -71 18 -9 17
-7 19 17 20 95 2 113 23 113 130 0 43 -4 80 -9 83 -4 3 -11 -32 -14 -77 -9
-106 -14 -110 -127 -104 -97 5 -172 32 -215 77 l-28 29 7 218 c8 267 12 294
48 307 22 8 32 5 57 -17 36 -30 80 -41 144 -36 l44 4 -20 -27 c-16 -22 -19
-37 -14 -81 7 -67 57 -190 98 -240 53 -64 82 -49 173 88 25 38 46 80 46 93 0
14 13 36 31 53 26 24 30 34 25 57 -4 15 -7 44 -6 65 0 20 -4 37 -9 37 -17 0
-71 -63 -83 -97 -7 -18 -17 -33 -23 -33 -6 0 -27 -23 -47 -51 l-35 -51 -23 73
c-19 64 -30 81 -81 131 l-60 58 27 23 c22 20 28 33 31 83 2 32 6 73 9 89 4 24
0 35 -21 55 -21 20 -39 25 -94 28 -67 4 -67 4 -99 -32z m242 -385 c8 -14 22
-61 32 -103 10 -43 21 -78 24 -78 4 0 28 29 53 65 47 66 58 71 77 35 8 -15 -2
-35 -48 -107 -81 -122 -84 -124 -121 -73 -40 55 -92 182 -94 230 -2 47 27 87
50 68 8 -6 20 -23 27 -37z"/>
<path d="M4365 3170 c-112 -23 -193 -70 -230 -134 -21 -36 -24 -57 -29 -175
-3 -74 -8 -137 -13 -142 -27 -26 -267 -153 -311 -165 -75 -20 -124 -47 -168
-94 -22 -23 -97 -74 -174 -118 -160 -91 -233 -157 -243 -217 -10 -59 -8 -155
3 -196 5 -19 22 -47 37 -61 25 -24 832 -497 943 -553 51 -26 140 -45 207 -45
69 0 192 29 252 60 104 52 776 441 811 469 70 56 80 81 80 207 l0 114 -34 37
c-22 25 -140 100 -345 218 l-311 180 0 210 c0 182 -3 215 -19 250 -54 120
-269 193 -456 155z m286 -39 c107 -41 169 -109 169 -186 0 -101 -113 -183
-280 -204 -85 -11 -247 16 -291 48 -15 11 -32 21 -37 21 -20 0 -80 79 -86 114
-13 70 47 157 134 194 79 34 126 41 230 38 77 -2 120 -9 161 -25z m-390 -368
c30 -14 79 -28 109 -32 42 -5 56 -10 58 -24 8 -39 -3 -45 -60 -35 -71 13 -152
52 -194 94 -19 19 -34 31 -34 26 0 -5 20 -28 45 -51 67 -63 141 -85 290 -85
136 0 199 18 281 80 32 25 42 29 34 15 -16 -31 -90 -77 -159 -101 -71 -24
-204 -28 -286 -10 -60 13 -163 72 -189 107 -10 14 -20 41 -22 59 -1 18 -5 43
-9 55 -5 16 6 9 37 -25 25 -26 70 -59 99 -73z m8 -111 c34 -13 82 -27 109 -30
44 -7 47 -9 47 -37 0 -27 -3 -30 -30 -27 -134 13 -248 92 -271 187 -7 28 -5
27 38 -20 34 -37 62 -56 107 -73z m-27 -95 c30 -15 83 -33 119 -41 58 -11 64
-15 67 -39 3 -25 0 -27 -31 -27 -45 0 -143 34 -189 67 -42 29 -73 72 -84 118
l-7 30 36 -40 c19 -22 59 -53 89 -68z m-141 -36 c104 -40 160 -96 166 -170 6
-58 -21 -102 -91 -149 -157 -105 -446 -81 -554 48 -27 31 -44 83 -38 115 13
69 113 147 223 175 64 16 230 5 294 -19z m1053 -186 c317 -184 320 -186 336
-225 19 -47 5 -93 -43 -137 -44 -40 -773 -463 -864 -501 -65 -28 -190 -45
-257 -37 -71 9 -150 45 -316 145 -21 12 -91 53 -425 245 -159 92 -305 181
-322 198 -26 25 -33 39 -33 69 0 49 21 90 62 121 36 27 261 157 272 157 3 0 6
-54 6 -120 0 -141 14 -181 81 -230 81 -58 141 -74 279 -74 153 0 218 21 291
93 57 56 69 95 69 220 l0 93 28 -7 c208 -54 449 16 502 146 15 34 -21 51 334
-156z m-1891 -349 c73 -54 924 -538 978 -556 34 -12 85 -20 124 -20 l65 0 0
-56 0 -57 -62 6 c-138 13 -101 -4 -468 210 -151 88 -295 171 -320 185 -25 13
-52 30 -60 36 -8 6 -36 22 -62 36 -27 13 -48 28 -48 33 0 4 -3 6 -8 3 -4 -2
-26 9 -50 25 -23 16 -46 29 -50 29 -28 0 -82 91 -82 137 0 18 7 16 43 -11z"/>
<path d="M4364 3117 c-63 -16 -136 -58 -156 -89 -83 -128 66 -249 292 -236
104 6 176 35 225 89 28 31 35 47 35 79 0 34 -7 47 -43 84 -26 25 -63 50 -93
60 -64 23 -195 29 -260 13z m284 -88 c80 -39 108 -78 87 -120 -15 -29 -72 -75
-81 -66 -3 3 -6 27 -6 53 0 60 -10 79 -50 100 -23 12 -47 15 -87 11 -31 -2
-67 -1 -81 2 l-25 7 25 7 c35 9 21 15 -23 9 -34 -4 -36 -6 -20 -18 15 -11 15
-13 3 -14 -9 0 -21 5 -28 12 -9 9 -13 7 -18 -7 -5 -12 -1 -22 11 -31 24 -18
54 -18 61 -1 5 13 39 19 126 21 38 1 53 -4 73 -24 23 -23 24 -27 11 -52 -8
-14 -10 -30 -5 -35 4 -4 -31 -8 -79 -8 -64 0 -86 3 -84 13 3 16 -13 15 -27 -2
-31 -37 29 -64 117 -52 69 9 87 -9 23 -23 -101 -21 -189 -12 -278 30 -39 19
-93 75 -93 98 0 14 60 81 72 81 5 0 9 -15 8 -32 -1 -18 -2 -38 -1 -45 2 -19
111 -55 140 -47 15 4 50 6 79 5 28 -2 52 0 52 3 0 3 -17 14 -38 25 -31 16 -51
19 -94 14 -46 -5 -60 -2 -91 18 -40 26 -45 40 -22 59 8 7 13 16 10 20 -3 5 25
12 61 15 69 8 91 -2 78 -35 -4 -11 -2 -12 6 -4 6 6 12 21 13 34 1 21 4 22 57
16 30 -3 83 -20 118 -37z"/>
<path d="M3814 2517 c-147 -38 -221 -141 -162 -227 50 -73 141 -110 273 -110
92 0 170 20 227 58 48 31 68 68 68 123 0 37 -6 48 -44 84 -24 23 -65 50 -92
59 -64 23 -204 29 -270 13z m286 -100 c44 -22 71 -42 83 -65 l19 -32 -43 -43
-44 -42 -5 60 c-3 33 -9 66 -13 73 -17 26 -69 44 -118 40 -48 -3 -49 -2 -49
26 l0 29 53 -7 c28 -4 81 -21 117 -39z m-337 -107 c18 -12 50 -20 75 -20 40 0
42 -1 42 -30 0 -25 4 -30 36 -36 19 -3 57 -4 85 -2 57 6 67 -6 12 -16 -135
-22 -275 15 -335 88 -24 29 -23 40 15 82 l32 38 3 -43 c3 -35 9 -45 35 -61z"/>
<path d="M4530 2180 c-75 -16 -170 -70 -207 -118 -31 -41 -33 -48 -33 -125 0
-100 22 -144 93 -194 181 -124 520 -79 604 81 25 47 24 171 -3 216 -26 46 -90
93 -161 120 -66 25 -217 35 -293 20z m200 -11 c168 -27 281 -132 255 -236 -10
-43 -94 -117 -161 -144 -50 -20 -77 -23 -179 -23 -102 0 -129 3 -179 23 -77
31 -152 102 -161 154 -19 99 76 187 240 222 76 17 104 17 185 4z"/>
<path d="M4515 2137 c-101 -34 -155 -83 -162 -149 -5 -56 20 -97 82 -134 192
-112 505 -33 505 127 0 51 -50 108 -123 140 -64 28 -236 37 -302 16z m294 -87
c54 -24 101 -69 101 -99 0 -20 -66 -88 -76 -78 -4 3 -6 27 -6 53 1 38 -4 51
-28 75 -28 29 -51 34 -117 30 -30 -2 -33 0 -33 25 0 27 1 27 54 21 29 -3 76
-15 105 -27z m-354 -87 c6 -26 80 -57 123 -51 26 4 28 2 24 -24 -6 -38 31 -52
118 -44 53 4 60 3 40 -6 -42 -18 -188 -15 -249 6 -61 21 -131 79 -131 108 0
11 15 34 32 51 l33 32 3 -25 c1 -14 5 -35 7 -47z"/>
<path d="M6382 2770 c-18 -4 -42 -16 -53 -26 -18 -16 -19 -26 -14 -99 8 -97
21 -135 46 -135 11 0 19 -2 19 -5 0 -2 -27 -30 -59 -63 -49 -48 -62 -68 -76
-117 -9 -33 -18 -66 -21 -74 -3 -8 -16 2 -36 30 -17 24 -39 52 -49 62 -11 10
-19 24 -19 31 0 19 -60 86 -77 86 -12 0 -14 -8 -10 -32 3 -18 2 -42 -2 -53
-11 -27 6 -73 30 -80 13 -4 19 -16 19 -33 0 -48 122 -232 154 -232 31 0 84 78
120 178 29 83 34 157 10 190 -15 22 -15 22 25 16 49 -8 123 17 145 48 17 23
50 17 66 -12 11 -21 30 -273 30 -411 0 -87 -2 -98 -24 -122 -52 -56 -189 -97
-271 -80 -46 10 -52 25 -54 121 -1 39 -5 61 -11 57 -13 -8 -13 -151 0 -176 6
-10 17 -19 25 -19 10 0 16 -11 16 -32 2 -31 2 -31 6 -5 4 23 9 27 38 27 28 0
33 -3 28 -17 -11 -31 -47 -64 -64 -60 -15 4 -18 -8 -25 -87 -15 -168 3 -471
28 -487 17 -11 65 -11 72 -1 3 5 1 75 -5 155 l-9 147 41 127 c23 71 44 150 48
177 3 29 12 51 20 54 11 4 13 -7 7 -58 -4 -34 -11 -72 -16 -85 -6 -15 -5 -47
1 -82 6 -32 14 -125 17 -208 l7 -149 33 -10 c20 -5 36 -6 42 0 5 5 12 151 16
325 7 311 7 316 30 343 25 28 42 26 78 -10 20 -20 23 -233 4 -252 -24 -24 -28
-10 -28 97 0 103 -2 112 -25 138 l-24 28 -1 -162 c0 -179 0 -179 60 -148 52
27 60 49 60 163 0 123 -12 159 -63 187 -35 19 -37 22 -37 72 0 43 7 62 41 118
49 78 49 79 -16 232 -47 110 -68 143 -91 143 -18 0 -94 40 -94 50 0 4 7 13 16
21 53 44 53 117 0 174 -35 37 -56 41 -124 25z m-33 -404 c11 -25 11 -37 -4
-92 -21 -78 -66 -173 -92 -197 -20 -17 -21 -17 -47 13 -14 18 -44 62 -67 100
-39 67 -40 69 -24 94 l17 26 51 -72 50 -72 23 93 c34 138 62 170 93 107z"/>
<path d="M2175 2350 c-40 -68 -95 -82 -95 -25 0 36 -17 39 -22 4 -3 -19 1 -36
9 -45 12 -12 12 -14 -1 -14 -19 0 -22 -26 -3 -33 16 -6 49 12 42 23 -3 5 7 8
22 8 36 -1 173 68 173 86 0 35 -12 46 -54 46 -39 0 -43 -3 -71 -50z"/>
<path d="M6206 1177 c-10 -7 -17 -22 -15 -32 4 -21 106 -83 151 -92 16 -3 28
-12 28 -19 0 -8 9 -14 20 -14 21 0 29 30 8 30 -7 0 -5 5 5 11 22 13 25 81 3
73 -8 -3 -12 -13 -9 -25 3 -11 -1 -21 -10 -25 -20 -7 -57 13 -57 31 0 8 -7 15
-16 15 -9 0 -21 14 -27 30 -13 33 -48 41 -81 17z"/>
</g>
</svg>
