<svg width="927" height="652" viewBox="0 0 927 652" xmlns="http://www.w3.org/2000/svg">
    <!-- <rect x="0.25" y="0.25" width="926.5" height="651.5" fill="white" stroke="black" stroke-width="0.5" /> --> -->
    <rect id="middle" x="442" y="338" width="38" height="36" fill-opacity="0.63" />
    <rect id="monitor" fill="none" stroke="#3B7790" x="269.5" y="121.5" width="375" height="215" rx="8.5"
        stroke-opacity="0.74" stroke-width="3" />
    <rect id="bottom" x="424.035" y="381.233" width="6.85807" height="74.0085"
        transform="rotate(-90.2903 424.035 381.233)" fill-opacity="0.32" />
    <path id="logText"
        d="M160.4 522V542.2C160.4 543.533 159.867 544.667 158.8 545.6C157.733 546.533 156.4 547 154.8 547H62.4C60.9333 547 59.6667 546.533 58.6 545.6C57.5333 544.667 57 543.533 57 542.2C57 529.933 62.0667 518.6 72.2 508.2C77.2667 502.867 82.2 498.267 87 494.4C91.8 490.533 97.8 486.067 105 481L110.8 476.8C117.6 471.867 123 467.667 127 464.2C131.133 460.733 135.2 456.333 139.2 451C143.333 445.533 145.867 440.133 146.8 434.8H69.8V450.4C69.8 451.733 69.2667 452.867 68.2 453.8C67.1333 454.6 65.8667 455 64.4 455C62.9333 455 61.6667 454.6 60.6 453.8C59.5333 452.867 59 451.733 59 450.4V430C59 428.8 59.5333 427.733 60.6 426.8C61.6667 425.867 62.9333 425.4 64.4 425.4H152.4C153.867 425.4 155.133 425.867 156.2 426.8C157.4 427.733 158 428.8 158 430C158 441.2 153.133 451.8 143.4 461.8C138.467 466.867 134.2 470.933 130.6 474C127 476.933 122.2 480.6 116.2 485L106.2 492.4C99 497.6 93.2667 502 89 505.6C84.8667 509.2 80.6 514 76.2 520C71.8 525.867 69.1333 531.733 68.2 537.6H149.6V522C149.6 520.667 150.133 519.6 151.2 518.8C152.267 517.867 153.533 517.4 155 517.4C156.467 517.4 157.733 517.867 158.8 518.8C159.867 519.6 160.4 520.667 160.4 522ZM237.536 503C237.136 495.8 235.003 490.067 231.136 485.8C227.403 481.533 221.936 479.4 214.736 479.4C207.669 479.4 201.736 481.6 196.936 486C192.136 490.267 189.136 495.933 187.936 503H237.536ZM237.936 527.8C238.869 526.2 239.936 525.4 241.136 525.4C242.336 525.4 243.536 525.733 244.736 526.4C245.936 526.933 246.736 527.867 247.136 529.2C247.669 530.4 247.603 531.533 246.936 532.6C240.136 543.533 229.336 549 214.536 549C202.803 549 193.536 545.267 186.736 537.8C180.069 530.2 176.736 520.667 176.736 509.2C176.736 497.733 180.203 488.4 187.136 481.2C194.069 473.867 203.203 470.2 214.536 470.2C225.869 470.2 234.269 473.6 239.736 480.4C245.336 487.2 248.136 496.267 248.136 507.6C248.136 510.667 246.403 512.2 242.936 512.2L187.536 512.4C188.069 520.667 190.736 527.333 195.536 532.4C200.469 537.333 206.803 539.8 214.536 539.8C224.936 539.8 232.736 535.8 237.936 527.8ZM300.422 479.4C292.822 479.4 286.755 482.133 282.222 487.6C277.689 493.067 275.422 500.467 275.422 509.8C275.422 519.133 277.622 526.467 282.022 531.8C286.555 537.133 292.689 539.8 300.422 539.8C311.622 539.8 320.555 533.467 327.222 520.8V491.4C323.755 488.067 319.555 485.267 314.622 483C309.822 480.6 305.089 479.4 300.422 479.4ZM327.222 406.4H314.022C312.689 406.4 311.555 406 310.622 405.2C309.822 404.267 309.422 403.133 309.422 401.8C309.422 400.467 309.822 399.333 310.622 398.4C311.555 397.467 312.689 397 314.022 397H332.622C334.089 397 335.355 397.467 336.422 398.4C337.489 399.333 338.022 400.467 338.022 401.8V533.8C338.022 536.333 339.355 537.6 342.022 537.6H351.222C352.555 537.6 353.622 538.067 354.422 539C355.355 539.8 355.822 540.867 355.822 542.2C355.822 543.533 355.355 544.667 354.422 545.6C353.622 546.533 352.555 547 351.222 547H340.622C331.955 547 327.755 542.267 328.022 532.8C325.089 537.333 321.222 541.2 316.422 544.4C311.755 547.467 306.422 549 300.422 549C288.555 549 279.622 545.2 273.622 537.6C267.755 530 264.822 520.6 264.822 509.4C264.822 498.2 267.889 488.867 274.022 481.4C280.289 473.933 288.822 470.2 299.622 470.2C310.422 470.2 319.622 473.733 327.222 480.8V406.4ZM426.794 503C426.394 495.8 424.26 490.067 420.394 485.8C416.66 481.533 411.194 479.4 403.994 479.4C396.927 479.4 390.994 481.6 386.194 486C381.394 490.267 378.394 495.933 377.194 503H426.794ZM427.194 527.8C428.127 526.2 429.194 525.4 430.394 525.4C431.594 525.4 432.794 525.733 433.994 526.4C435.194 526.933 435.994 527.867 436.394 529.2C436.927 530.4 436.86 531.533 436.194 532.6C429.394 543.533 418.594 549 403.794 549C392.06 549 382.794 545.267 375.994 537.8C369.327 530.2 365.994 520.667 365.994 509.2C365.994 497.733 369.46 488.4 376.394 481.2C383.327 473.867 392.46 470.2 403.794 470.2C415.127 470.2 423.527 473.6 428.994 480.4C434.594 487.2 437.394 496.267 437.394 507.6C437.394 510.667 435.66 512.2 432.194 512.2L376.794 512.4C377.327 520.667 379.994 527.333 384.794 532.4C389.727 537.333 396.06 539.8 403.794 539.8C414.194 539.8 421.994 535.8 427.194 527.8ZM542.825 544.4V434.8H503.225V446.6C503.225 447.933 502.692 449.067 501.625 450C500.558 450.8 499.292 451.2 497.825 451.2C496.358 451.2 495.092 450.8 494.025 450C492.958 449.067 492.425 447.933 492.425 446.6V430.2C492.425 428.867 492.958 427.733 494.025 426.8C495.092 425.867 496.292 425.4 497.625 425.4H598.625C600.092 425.4 601.358 425.867 602.425 426.8C603.492 427.733 604.025 428.867 604.025 430.2V446.6C604.025 447.933 603.492 449.067 602.425 450C601.358 450.8 600.092 451.2 598.625 451.2C597.158 451.2 595.892 450.8 594.825 450C593.758 449.067 593.225 447.933 593.225 446.6V434.8H553.625V544.4C553.625 545.733 553.092 546.8 552.025 547.6C550.958 548.533 549.692 549 548.225 549C546.758 549 545.492 548.533 544.425 547.6C543.358 546.8 542.825 545.733 542.825 544.4ZM676.013 503C675.613 495.8 673.479 490.067 669.613 485.8C665.879 481.533 660.413 479.4 653.213 479.4C646.146 479.4 640.213 481.6 635.413 486C630.613 490.267 627.613 495.933 626.413 503H676.013ZM676.413 527.8C677.346 526.2 678.413 525.4 679.613 525.4C680.813 525.4 682.013 525.733 683.213 526.4C684.413 526.933 685.213 527.867 685.613 529.2C686.146 530.4 686.079 531.533 685.413 532.6C678.613 543.533 667.813 549 653.013 549C641.279 549 632.013 545.267 625.213 537.8C618.546 530.2 615.213 520.667 615.213 509.2C615.213 497.733 618.679 488.4 625.613 481.2C632.546 473.867 641.679 470.2 653.013 470.2C664.346 470.2 672.746 473.6 678.213 480.4C683.813 487.2 686.613 496.267 686.613 507.6C686.613 510.667 684.879 512.2 681.413 512.2L626.013 512.4C626.546 520.667 629.213 527.333 634.013 532.4C638.946 537.333 645.279 539.8 653.013 539.8C663.413 539.8 671.213 535.8 676.413 527.8ZM764.098 527.8C765.165 526.2 766.232 525.4 767.298 525.4C768.498 525.4 769.698 525.667 770.898 526.2C772.765 527 773.698 528.133 773.698 529.6C773.698 530.933 773.498 531.933 773.098 532.6C766.298 543.533 755.498 549 740.698 549C729.365 549 720.298 545.2 713.498 537.6C706.698 529.867 703.298 520.4 703.298 509.2C703.298 498 706.832 488.733 713.898 481.4C721.098 473.933 729.965 470.2 740.498 470.2C751.165 470.2 760.432 472.667 768.298 477.6C769.898 478.667 770.698 479.933 770.698 481.4V498.2C770.698 499.533 770.165 500.667 769.098 501.6C768.032 502.4 766.765 502.8 765.298 502.8C763.832 502.8 762.565 502.4 761.498 501.6C760.432 500.667 759.898 499.533 759.898 498.2V484C754.565 480.933 748.165 479.4 740.698 479.4C733.232 479.4 726.898 482.2 721.698 487.8C716.498 493.4 713.898 500.667 713.898 509.6C713.898 518.4 716.365 525.667 721.298 531.4C726.365 537 732.832 539.8 740.698 539.8C751.098 539.8 758.898 535.8 764.098 527.8ZM805.036 544.4C805.036 545.733 804.503 546.8 803.436 547.6C802.369 548.533 801.103 549 799.636 549C798.169 549 796.903 548.533 795.836 547.6C794.769 546.8 794.236 545.733 794.236 544.4V406.4H781.036C779.703 406.4 778.636 406 777.836 405.2C776.903 404.267 776.436 403.133 776.436 401.8C776.436 400.467 776.903 399.333 777.836 398.4C778.636 397.467 779.703 397 781.036 397H799.836C801.169 397 802.369 397.467 803.436 398.4C804.503 399.333 805.036 400.467 805.036 401.8V485.6C813.303 475.067 823.103 469.8 834.436 469.8C841.903 469.8 847.836 471.733 852.236 475.6C856.769 479.333 859.036 484.6 859.036 491.4V534C859.036 536.4 860.836 537.6 864.436 537.6H872.236C873.569 537.6 874.636 538.067 875.436 539C876.369 539.933 876.836 541.067 876.836 542.4C876.836 543.733 876.369 544.867 875.436 545.8C874.636 546.6 873.569 547 872.236 547H864.436C853.636 547 848.236 542.667 848.236 534V491.4C848.236 483.133 843.636 479 834.436 479C822.169 479 812.369 485.533 805.036 498.6V544.4Z"
        fill="#FFF" fill-opacity="0.62" />
    <path id="iconText"
        d="M329.8 243.2C328.2 242.133 327.4 240.8 327.4 239.2C327.4 237.467 328.2 236.067 329.8 235L388 198C388.8 197.6 389.733 197.4 390.8 197.4C391.867 197.4 392.867 198.2 393.8 199.8C394.867 201.267 395.4 202.6 395.4 203.8C395.4 204.867 394.8 205.733 393.6 206.4L341 239L393.6 271.6C394.8 272.267 395.4 273.2 395.4 274.4C395.4 275.467 394.867 276.8 393.8 278.4C392.867 279.867 391.867 280.6 390.8 280.6C389.733 280.6 388.8 280.4 388 280L329.8 243.2ZM421.928 284.4C420.995 286 419.928 286.8 418.728 286.8C417.528 286.8 416.128 286.333 414.528 285.4C412.928 284.467 412.128 283.467 412.128 282.4C412.128 281.333 412.461 280.333 413.128 279.4L491.928 165.8C492.861 164.2 493.928 163.4 495.128 163.4C496.328 163.4 497.728 163.867 499.328 164.8C500.928 165.733 501.728 166.8 501.728 168C501.728 169.067 501.395 170 500.728 170.8L421.928 284.4ZM525.747 280C524.947 280.4 524.014 280.6 522.947 280.6C521.88 280.6 520.814 279.867 519.747 278.4C518.814 276.8 518.347 275.467 518.347 274.4C518.347 273.2 518.947 272.267 520.147 271.6L572.747 239L520.147 206.4C518.947 205.733 518.347 204.867 518.347 203.8C518.347 202.6 518.814 201.267 519.747 199.8C520.814 198.2 521.88 197.4 522.947 197.4C524.014 197.4 524.947 197.6 525.747 198L583.947 235C585.547 236.067 586.347 237.467 586.347 239.2C586.347 240.8 585.547 242.133 583.947 243.2L525.747 280Z"
        fill="#FFF" fill-opacity="0.62" />
</svg>