<?xml version="1.0" standalone="no"?>
<!DOCTYPE svg PUBLIC "-//W3C//DTD SVG 20010904//EN"
 "http://www.w3.org/TR/2001/REC-SVG-20010904/DTD/svg10.dtd">
<svg version="1.0" xmlns="http://www.w3.org/2000/svg"
 width="800.000000pt" height="743.000000pt" viewBox="0 0 800.000000 743.000000"
 preserveAspectRatio="xMidYMid meet">
<metadata>
Created by potrace 1.16, written by Peter Selinger 2001-2019
</metadata>
<g transform="translate(0.000000,743.000000) scale(0.100000,-0.100000)"
>
<path d="M4205 7038 c-71 -40 -111 -71 -65 -49 24 12 24 11 5 -4 -11 -8 -25
-13 -31 -11 -7 3 -20 -2 -31 -10 -17 -14 -16 -14 7 -4 24 11 24 10 5 -5 -11
-8 -26 -13 -34 -10 -9 3 -12 3 -9 -1 4 -4 1 -16 -7 -28 -8 -11 -15 -36 -15
-56 0 -32 -4 -37 -57 -65 -31 -16 -74 -45 -95 -64 -21 -18 -38 -30 -38 -26 0
4 -7 2 -16 -6 -16 -13 -54 -82 -54 -96 1 -4 12 14 26 40 14 27 27 47 30 44 2
-2 -7 -25 -22 -51 -20 -35 -27 -66 -31 -126 -3 -44 -7 -80 -9 -80 -2 0 -19 9
-38 21 -37 22 -51 37 -17 19 11 -5 23 -10 28 -10 17 0 -101 62 -124 65 -13 1
-30 8 -36 15 -10 10 -7 10 13 1 23 -11 24 -11 6 3 -10 9 -23 13 -27 10 -14 -8
-70 26 -63 38 4 7 3 8 -4 4 -12 -7 -78 22 -69 31 3 2 18 -3 34 -12 l28 -17
-25 21 c-15 12 -32 18 -44 15 -11 -4 -16 -2 -12 4 3 6 1 14 -5 18 -8 5 -9 3
-4 -6 5 -8 3 -11 -6 -8 -8 3 -13 10 -12 16 2 7 -4 9 -14 5 -12 -5 -14 -3 -8 7
5 9 4 11 -3 6 -7 -4 -38 9 -71 28 l-59 34 -35 -24 c-39 -26 -52 -30 -41 -12 4
7 3 8 -5 4 -6 -4 -8 -12 -5 -18 5 -7 1 -9 -9 -5 -9 3 -16 3 -16 -1 1 -4 0 -95
-2 -202 l-3 -195 -6 190 -6 190 -2 -192 -2 -191 -56 -32 -56 -31 -102 56 c-88
50 -161 98 -98 66 12 -6 22 -10 22 -7 0 5 -139 86 -148 86 -3 0 3 -7 14 -15
18 -14 18 -15 -7 -6 -20 7 -33 5 -57 -11 -18 -11 -32 -22 -32 -25 0 -2 5 -1
12 3 7 5 8 3 4 -5 -5 -7 -15 -10 -23 -7 -8 3 -11 1 -8 -4 3 -6 2 -10 -4 -10
-6 0 -12 -65 -14 -162 -3 -90 -8 -180 -12 -200 -5 -26 -3 -38 4 -38 8 0 11
-221 11 -800 l0 -799 -21 -11 c-11 -7 -23 -9 -26 -6 -8 8 -44 -14 -38 -23 5
-9 -127 -92 -142 -90 -17 3 -29 -2 -53 -22 -24 -20 -23 -20 13 1 20 12 37 19
37 17 0 -10 -71 -49 -77 -43 -3 3 -13 1 -22 -3 -12 -7 -15 -21 -13 -63 l4 -54
114 -63 c107 -58 138 -79 97 -64 -23 8 -14 -1 16 -17 18 -9 22 -9 16 0 -6 9
-2 9 14 1 22 -12 30 -27 9 -16 -30 14 41 -33 95 -64 33 -19 57 -28 52 -22 -4
8 4 7 24 -3 17 -9 31 -19 31 -22 0 -2 -9 0 -20 6 -11 6 -20 8 -20 6 0 -10 91
-58 116 -61 14 -1 31 -8 37 -15 10 -10 7 -10 -13 -1 -23 11 -24 11 -6 -3 10
-9 23 -13 28 -10 8 5 118 -53 118 -63 0 -3 -25 9 -55 26 -30 17 -55 29 -55 26
0 -12 104 -63 118 -57 10 3 13 1 8 -6 -3 -6 -1 -14 5 -18 8 -4 9 -3 5 4 -10
17 7 15 30 -4 17 -14 17 -15 1 -10 -11 4 -16 2 -12 -5 4 -6 14 -8 22 -5 18 7
56 -12 48 -24 -3 -5 0 -12 6 -16 8 -4 9 -3 5 4 -11 19 3 14 60 -19 30 -17 52
-35 49 -40 -4 -5 0 -6 7 -4 7 3 34 -8 59 -24 26 -16 56 -32 68 -36 11 -3 21
-11 21 -16 0 -5 6 -9 14 -9 8 0 22 -8 32 -18 10 -9 18 -15 18 -13 1 6 86 -38
86 -45 0 -2 -9 0 -20 6 -11 6 -20 9 -20 6 0 -9 213 -129 229 -129 16 0 121
-55 121 -64 0 -3 -25 9 -55 26 -30 17 -55 29 -55 26 0 -9 104 -64 111 -59 12
7 120 -57 113 -67 -3 -5 1 -6 8 -4 8 3 22 -2 33 -10 19 -15 19 -16 -5 -5 -23
10 -24 10 -7 -4 11 -8 26 -12 35 -9 10 4 13 2 8 -5 -5 -8 -1 -10 10 -5 11 4
15 3 10 -5 -3 -6 -1 -14 5 -18 8 -5 9 -3 4 6 -5 8 -3 11 4 9 9 -3 11 -172 11
-674 0 -368 -4 -671 -8 -674 -4 -4 -7 -12 -8 -18 -2 -29 -4 -34 -13 -29 -9 6
-66 -123 -57 -131 2 -2 9 12 16 32 7 20 14 34 16 32 6 -5 -25 -88 -38 -102 -6
-6 -7 -3 -2 8 5 14 -5 11 -42 -14 -67 -44 -79 -57 -21 -24 26 15 47 25 47 22
0 -9 -90 -58 -98 -53 -8 5 -112 -50 -112 -59 0 -3 25 9 55 26 30 17 55 29 55
26 0 -9 -111 -68 -119 -63 -7 5 -111 -50 -111 -59 0 -3 25 9 55 26 30 17 55
29 55 26 0 -9 -111 -68 -119 -63 -4 3 -17 -1 -27 -10 -18 -14 -18 -15 4 -4 34
16 26 3 -9 -16 -18 -9 -28 -11 -24 -4 6 9 2 9 -14 1 -11 -7 -21 -14 -21 -17 0
-3 5 -2 12 2 7 5 8 3 4 -5 -5 -7 -15 -10 -23 -7 -9 4 -11 2 -7 -6 5 -8 2 -9
-9 -5 -9 3 -19 1 -23 -5 -5 -7 -2 -8 6 -3 9 6 11 4 6 -4 -5 -7 -15 -10 -23 -7
-8 3 -12 2 -9 -3 3 -5 -1 -12 -10 -15 -9 -4 -13 -2 -8 5 4 8 0 8 -14 0 -12 -6
-25 -17 -29 -25 -9 -15 -54 -41 -65 -38 -5 1 -8 -2 -8 -7 0 -5 -10 -11 -22
-13 -21 -3 -23 -9 -24 -63 l-1 -60 7 60 7 60 1 -53 c2 -42 7 -58 25 -74 12
-11 16 -16 8 -12 -10 5 -12 3 -7 -5 5 -7 15 -10 23 -7 8 3 23 0 32 -7 18 -12
21 -17 21 -37 0 -5 8 -10 17 -10 15 0 14 2 -3 15 -10 8 -14 15 -8 15 6 0 22
-8 35 -18 13 -10 35 -23 49 -30 24 -12 50 -27 79 -46 9 -6 10 -10 2 -16 -7 -3
2 -7 18 -7 39 0 66 -21 50 -39 -7 -9 -8 -14 -1 -14 6 0 12 5 14 11 4 12 38 1
38 -13 0 -6 -7 -8 -15 -4 -21 8 -45 -3 -45 -20 0 -8 9 -14 20 -14 11 0 20 -5
20 -11 0 -5 -4 -7 -10 -4 -6 3 -7 -1 -4 -9 4 -11 0 -16 -12 -16 -16 0 -17 -2
-4 -10 11 -7 12 -10 2 -10 -8 0 -11 -7 -8 -18 8 -24 -18 -61 -29 -42 -5 9 -4
11 3 6 7 -4 12 -5 12 -2 0 3 -10 10 -21 17 -15 7 -19 8 -15 0 5 -7 1 -9 -8 -5
-9 3 -13 10 -10 15 3 5 -3 6 -12 2 -11 -4 -15 -3 -10 5 4 8 -3 8 -26 0 -18 -5
-38 -10 -45 -11 -7 0 -10 -3 -8 -7 2 -3 -5 -12 -17 -19 -16 -10 -19 -10 -13 1
4 7 -3 2 -14 -12 -11 -14 -21 -36 -22 -50 -2 -24 -2 -24 -6 -2 -3 13 1 31 9
40 12 15 11 16 -4 3 -26 -20 -20 -79 8 -84 5 -1 8 -5 7 -9 -1 -3 4 -9 13 -12
9 -4 12 -2 8 5 -4 7 1 7 16 -1 12 -6 19 -14 16 -17 -6 -7 24 -32 38 -33 6 0 1
7 -10 16 -29 24 -9 13 112 -59 62 -37 122 -67 133 -67 12 0 39 11 59 25 33 22
38 24 49 10 9 -13 11 -10 12 19 3 71 -1 106 -11 100 -5 -3 -40 12 -78 33 -55
29 -70 42 -68 58 2 13 11 20 28 20 15 0 26 7 28 18 2 12 -3 17 -17 17 -14 0
-19 5 -14 16 4 11 8 12 13 4 8 -13 20 20 20 58 0 22 1 22 30 7 31 -16 42 -32
15 -21 -8 3 -15 1 -15 -3 0 -5 6 -12 13 -14 9 -4 9 -6 0 -6 -25 -2 -13 -31 12
-31 26 0 35 25 13 33 -10 4 -10 7 0 18 6 7 12 8 12 3 0 -6 12 -16 26 -22 16
-8 22 -17 18 -25 -5 -8 -2 -8 9 2 9 7 17 9 17 4 0 -9 38 -31 50 -30 3 1 15 -8
28 -18 12 -11 26 -20 30 -20 4 -1 18 -7 32 -15 14 -8 34 -20 45 -26 11 -6 19
-16 18 -22 -2 -6 4 -9 12 -6 8 3 28 -4 44 -15 16 -12 31 -21 34 -21 3 0 25
-12 48 -26 35 -20 39 -24 17 -20 -16 4 -28 2 -28 -2 0 -5 12 -9 28 -8 16 1 27
7 27 15 0 8 6 16 14 19 9 3 11 0 6 -9 -5 -8 6 1 23 19 30 32 57 39 57 14 0 -7
3 -12 7 -13 4 0 21 -4 36 -9 26 -7 29 -5 28 13 -1 13 -10 23 -28 28 -20 5 -25
4 -22 -6 3 -7 1 -15 -3 -18 -14 -9 -13 32 0 40 17 11 50 10 60 -2 5 -6 7 -4 4
5 -2 8 -10 14 -16 12 -24 -5 -9 9 32 29 23 12 44 24 47 28 3 3 31 19 63 36 31
16 57 34 57 39 0 5 3 7 6 4 5 -6 261 136 274 152 3 3 16 11 30 18 14 7 43 23
65 37 22 13 49 29 60 35 11 5 34 19 50 29 34 22 59 27 32 7 -15 -12 -15 -14
-2 -19 8 -4 14 -3 14 1 -1 4 0 10 1 15 1 4 3 12 4 18 0 7 11 15 23 20 18 7 21
5 17 -9 -5 -13 -3 -14 4 -4 5 7 10 44 11 81 l2 68 -33 14 c-18 7 -44 25 -57
39 -13 14 -21 19 -17 13 5 -9 2 -11 -8 -7 -9 3 -13 10 -10 15 3 5 -1 6 -9 3
-8 -3 -18 0 -23 7 -4 8 -3 10 4 5 7 -4 12 -5 12 -2 0 3 -10 10 -21 17 -16 8
-20 8 -14 -1 4 -7 -6 -5 -24 4 -17 9 -31 19 -31 22 0 2 9 0 20 -6 11 -6 20 -8
20 -6 0 3 -14 13 -31 22 -18 9 -28 11 -24 4 4 -7 -6 -5 -24 4 -35 19 -43 32
-8 16 20 -10 21 -10 4 4 -11 8 -24 13 -31 10 -6 -2 -20 3 -31 11 -19 16 -19
16 3 5 12 -6 22 -8 22 -6 0 10 -104 65 -112 60 -13 -8 -169 87 -161 98 3 7 1
8 -6 4 -14 -9 -123 52 -116 65 4 5 -2 6 -11 2 -11 -4 -15 -3 -10 5 3 6 1 14
-5 18 -8 5 -9 3 -4 -6 6 -10 4 -12 -9 -7 -10 4 -20 7 -22 7 -2 0 -4 289 -4
642 0 353 2 639 5 636 3 -3 7 -288 8 -634 l2 -629 2 615 c2 387 7 617 13 622
5 5 8 5 5 1 -8 -10 34 -35 47 -27 6 4 8 3 5 -3 -8 -12 145 -104 178 -107 21
-3 115 -54 115 -63 0 -3 -25 9 -55 26 -30 17 -55 29 -55 27 0 -10 90 -58 113
-60 31 -4 118 -56 111 -67 -3 -5 3 -6 12 -2 10 4 15 2 11 -4 -7 -12 29 -10 40
2 5 4 2 5 -6 0 -10 -6 -12 -4 -7 4 5 7 15 10 23 7 8 -3 12 -2 9 3 -3 5 43 39
103 75 l109 66 36 -21 c20 -11 36 -23 36 -26 0 -3 -16 4 -36 16 -27 16 -40 19
-55 11 -10 -6 -19 -13 -19 -16 0 -2 9 0 20 6 15 8 26 7 45 -6 28 -18 83 -25
92 -11 4 6 0 7 -8 3 -8 -4 -5 0 6 9 32 26 65 41 35 15 -18 -15 -19 -19 -5 -11
58 29 56 18 58 266 2 212 3 230 19 229 10 -1 15 2 13 7 -3 4 4 13 15 19 15 8
27 7 50 -5 16 -9 30 -18 30 -21 0 -2 -14 3 -31 12 -25 12 -34 13 -43 3 -8 -9
-8 -10 1 -5 7 4 22 2 34 -5 12 -6 32 -12 46 -14 13 -1 30 -8 36 -15 10 -10 7
-10 -13 -1 -23 11 -23 11 -7 -3 11 -8 26 -12 35 -9 10 4 13 2 8 -5 -5 -8 -1
-10 10 -5 11 4 15 3 10 -5 -3 -6 -1 -14 5 -18 8 -5 9 -3 4 6 -5 8 -3 11 6 8 8
-3 14 -11 14 -19 0 -8 10 -14 25 -14 14 0 24 -5 23 -12 -2 -8 4 -10 14 -6 10
4 14 2 9 -5 -3 -6 -1 -14 5 -18 8 -4 9 -3 5 4 -12 19 2 14 66 -23 l60 -35 54
31 c49 28 59 39 55 62 -1 5 3 6 8 2 6 -3 8 -13 5 -23 -5 -14 -4 -15 5 -2 15
21 14 73 -1 64 -6 -4 -8 -3 -4 4 3 5 2 12 -4 14 -5 1 62 47 150 101 88 54 164
95 169 92 5 -3 13 0 17 6 5 8 2 10 -7 5 -8 -4 -6 -1 4 7 13 11 17 26 15 53 -3
37 -7 41 -75 78 -39 22 -69 44 -67 48 3 4 -1 5 -9 2 -8 -3 -18 0 -23 7 -5 8
-3 10 6 4 8 -5 11 -4 6 3 -4 6 -14 8 -23 5 -11 -4 -14 -3 -9 5 4 8 2 10 -7 6
-8 -3 -18 0 -23 7 -4 8 -3 10 4 5 7 -4 12 -5 12 -2 0 3 -10 10 -21 17 -16 8
-20 8 -14 -1 4 -7 -6 -5 -24 4 -17 9 -31 19 -31 22 0 2 9 0 20 -6 33 -18 22
-3 -15 20 l-35 22 0 786 c0 705 -2 787 -16 803 -9 10 -22 15 -29 13 -7 -3 -18
3 -24 14 -6 11 -18 22 -26 26 -10 4 -14 2 -9 -5 4 -8 0 -7 -15 0 -11 7 -21 14
-21 17 0 3 5 2 10 -1 6 -3 10 -4 10 -1 0 3 -10 10 -21 17 -16 8 -20 8 -14 -1
4 -7 -6 -5 -24 4 -35 19 -43 32 -8 16 20 -10 21 -10 4 4 -11 8 -24 13 -31 10
-6 -2 -20 3 -31 11 -19 15 -19 16 5 5 23 -10 24 -10 6 4 -10 9 -23 13 -28 10
-8 -5 -118 53 -118 63 0 3 25 -9 55 -26 30 -17 55 -29 55 -27 0 10 -90 58
-113 60 -23 3 -117 53 -117 63 0 3 25 -9 55 -26 30 -17 55 -29 55 -27 0 11
-91 58 -116 61 -14 1 -31 8 -37 15 -10 10 -7 10 13 1 23 -11 23 -11 7 3 -11 8
-26 12 -35 9 -10 -4 -13 -2 -8 5 5 8 1 10 -10 5 -11 -4 -15 -3 -10 5 3 6 1 14
-5 18 -8 4 -9 3 -5 -4 9 -16 -7 -15 -22 0 -18 18 -16 201 3 238 9 17 18 30 21
30 2 0 -2 -13 -11 -30 -11 -21 -15 -56 -13 -132 l2 -103 5 110 c3 61 11 119
18 130 6 11 11 25 11 30 -1 14 105 76 120 70 7 -3 10 -1 7 5 -7 11 26 30 52
30 15 0 16 -2 3 -11 -12 -9 -12 -10 3 -5 22 7 60 -11 51 -25 -3 -6 11 -3 33 6
68 30 67 29 58 15 -5 -9 -4 -11 4 -6 6 4 9 11 6 16 -6 10 122 83 134 76 4 -3
17 1 27 10 18 14 18 15 -3 4 -44 -21 -22 -1 32 30 71 40 79 57 61 112 -13 37
-13 40 0 24 7 -11 14 -28 14 -37 0 -10 4 -20 9 -24 13 -7 -4 52 -20 71 -6 8
-14 12 -18 10 -13 -8 -52 14 -45 25 4 8 3 9 -5 5 -6 -4 -36 6 -66 23 -66 38
-86 38 -148 6 -26 -14 -53 -23 -59 -19 -6 4 -8 3 -5 -4 4 -6 -17 -23 -48 -41
-59 -34 -70 -37 -59 -19 4 7 3 8 -5 4 -6 -4 -8 -12 -5 -18 5 -7 1 -9 -8 -5
-24 9 -50 -27 -55 -78 -3 -25 -9 -45 -12 -45 -4 0 -16 -7 -27 -15 -17 -15 -16
-15 12 -1 27 13 32 22 37 62 2 25 12 53 21 63 16 15 16 14 2 -14 -9 -16 -16
-45 -16 -63 0 -26 -7 -36 -32 -52 -18 -11 -38 -18 -45 -16 -16 6 -78 -36 -78
-54 0 -7 -6 -15 -14 -18 -9 -3 -11 0 -6 8 5 9 4 11 -4 6 -6 -4 -9 -11 -7 -15
7 -11 -11 -36 -26 -36 -7 0 -13 -7 -13 -15 -1 -8 -8 -39 -18 -69 -9 -30 -17
-79 -17 -109 0 -29 -3 -52 -8 -50 -51 22 -261 146 -275 162 -10 11 -16 15 -12
8 6 -11 3 -12 -14 -3 -11 7 -21 14 -21 17 0 3 6 2 13 -2 8 -5 9 -4 2 3 -18 19
-109 67 -101 54 6 -9 -2 -8 -23 3 -35 19 -43 32 -8 16 20 -10 21 -10 4 4 -11
8 -24 13 -31 10 -6 -2 -20 3 -31 11 -19 16 -19 16 3 5 45 -22 20 -1 -43 36
l-65 38 0 66 c0 68 16 144 29 136 4 -3 13 5 21 17 12 21 12 21 -6 7 -19 -14
-19 -14 0 7 10 13 22 20 27 18 4 -3 15 5 23 17 9 12 16 19 16 15 0 -4 10 1 22
13 20 18 33 24 41 18 2 -2 11 5 21 15 22 21 50 22 70 1 9 -8 16 -13 16 -9 0 3
9 1 20 -5 17 -9 43 2 168 72 81 46 153 83 161 83 8 0 16 12 18 30 1 17 5 42 7
56 5 28 -27 66 -74 88 -21 10 -22 10 -6 -1 11 -7 31 -24 46 -38 14 -14 17 -18
5 -9 -11 9 -39 26 -62 38 -42 21 -60 40 -26 27 10 -4 14 -3 9 1 -4 4 -17 9
-29 9 -12 1 -37 8 -54 15 -29 12 -37 11 -79 -9 -26 -13 -49 -20 -52 -17 -3 3
-1 5 4 5 6 0 19 7 30 15 16 14 15 14 -14 0 -18 -9 -30 -20 -27 -24 3 -5 -19
-22 -47 -39 -29 -16 -70 -40 -90 -52 -21 -12 -38 -19 -38 -16 0 3 36 26 80 52
93 53 108 70 20 22 -51 -28 -155 -105 -111 -82 11 5 13 3 8 -10 -4 -10 -7 -35
-7 -57 0 -21 -5 -39 -11 -39 -5 0 -7 5 -3 12 4 7 3 8 -5 4 -6 -4 -9 -11 -6
-16 3 -4 -2 -11 -11 -14 -9 -4 -13 -2 -8 5 4 8 0 7 -15 0 -11 -7 -21 -14 -21
-17 0 -3 5 -2 12 2 7 5 8 3 4 -5 -5 -7 -15 -10 -23 -7 -8 3 -12 2 -9 -3 3 -5
-1 -12 -10 -15 -10 -4 -13 -2 -8 7 4 6 -14 -10 -40 -38 -27 -27 -45 -43 -41
-35 5 9 4 12 -1 7 -5 -5 -10 -13 -10 -18 -1 -5 -2 -14 -3 -20 0 -5 -5 -7 -11
-4 -6 4 -7 -1 -3 -11 5 -13 3 -15 -7 -9 -9 5 -11 4 -6 -3 4 -7 2 -20 -4 -29
-10 -16 -11 -16 -5 2 5 16 4 18 -7 7 -9 -9 -12 -37 -11 -87 2 -66 1 -74 -15
-69 -14 5 -14 3 2 -10 29 -23 15 -20 -38 10 -25 14 -44 30 -41 35 4 5 -2 6
-11 2 -11 -4 -15 -3 -10 5 3 6 1 14 -5 18 -8 5 -9 3 -4 -6 5 -8 3 -11 -6 -8
-8 3 -14 11 -14 19 0 8 -10 14 -25 14 -15 0 -24 5 -22 13 1 8 -2 10 -8 7 -6
-4 -52 18 -103 48 -51 30 -120 69 -154 87 -35 18 -60 36 -57 41 3 5 -3 6 -12
2 -12 -4 -15 -3 -10 5 5 8 1 10 -10 5 -13 -5 -15 -3 -9 8 4 8 5 11 0 7 -4 -4
-16 -3 -26 3 -17 8 -19 22 -19 109 0 101 6 134 21 124 5 -3 6 3 2 12 -4 11 -2
15 4 11 6 -4 10 1 9 11 0 10 5 16 14 15 8 -1 26 7 40 18 l25 21 -28 -17 c-16
-9 -31 -14 -34 -12 -3 3 9 13 27 22 18 9 34 14 37 11 3 -3 27 6 53 20 l47 26
41 -21 c23 -12 47 -21 54 -21 7 0 -11 12 -41 25 -30 14 -62 23 -70 20 -13 -5
-13 -4 -4 6 10 10 23 8 62 -11 27 -12 57 -20 66 -16 11 4 14 2 9 -6 -4 -7 15
1 42 16 51 30 86 57 47 37 -13 -6 -23 -9 -23 -7 0 3 14 13 31 22 18 9 28 11
24 4 -6 -9 -2 -9 14 -1 22 12 30 27 9 16 -7 -4 -4 1 7 9 11 9 25 14 33 11 8
-3 10 0 6 7 -5 8 -2 9 10 5 10 -4 15 -3 11 3 -3 5 12 18 35 30 52 27 72 57 62
95 -6 24 -24 39 -81 72 -95 54 -106 67 -16 19 86 -46 75 -31 -13 18 -67 38
-77 42 -68 27 4 -5 -2 -8 -11 -6 -71 14 -79 12 -148 -27z m188 -19 c31 -17 57
-32 57 -34 0 -2 -50 -32 -112 -66 -142 -80 -148 -86 -148 -149 0 -49 0 -50
-25 -38 -18 8 -24 17 -19 27 16 38 15 50 -6 71 -16 16 -28 20 -51 15 -28 -6
-29 -5 -29 28 0 35 3 37 123 106 67 39 129 71 138 71 8 0 41 -14 72 -31z
m-255 -221 c3 -23 -5 -31 -70 -68 -169 -98 -221 -138 -265 -206 -25 -37 -2 58
25 110 30 55 61 81 176 148 93 54 129 59 134 16z m-603 -263 c121 -69 225
-132 231 -138 7 -7 14 -33 16 -58 l5 -46 -286 164 c-357 206 -341 196 -341
203 0 3 17 15 38 26 l37 22 40 -23 c22 -13 139 -80 260 -150z m95 -170 c239
-138 671 -388 960 -555 289 -167 689 -398 890 -515 l365 -211 3 -1068 c2
-1010 1 -1068 -15 -1062 -34 14 -333 188 -333 194 0 4 27 22 60 40 l60 33 0
897 0 897 -298 172 c-163 94 -529 305 -812 469 -283 163 -663 383 -845 488
-181 105 -334 189 -340 187 -5 -2 -39 -4 -75 -5 -36 -1 -73 -5 -82 -10 -17 -8
-18 3 -18 158 l0 167 23 -12 c12 -7 218 -126 457 -264z m1497 228 c29 -16 53
-30 53 -33 0 -3 -48 -32 -107 -64 -143 -77 -153 -87 -153 -148 0 -51 -5 -56
-36 -34 -15 12 -17 17 -6 27 32 33 -6 84 -58 77 -30 -5 -31 -4 -28 31 3 34 8
39 118 103 63 37 126 67 140 68 14 0 48 -12 77 -27z m-269 -195 c7 -7 12 -20
12 -30 0 -19 -22 -35 -156 -113 -84 -49 -147 -101 -176 -145 -16 -24 -16 -24
-7 20 12 51 46 115 81 147 27 25 208 133 224 133 5 0 15 -5 22 -12z m-2042
-109 c77 -45 141 -83 143 -85 3 -2 0 -9 -5 -14 -7 -7 -26 -2 -59 16 -42 24
-52 26 -78 16 -28 -10 -37 -7 -130 47 l-100 59 34 21 c19 12 39 21 45 21 7 0
74 -36 150 -81z m1574 -249 l115 -66 5 -51 5 -52 -30 18 c-16 10 -174 101
-350 202 -228 131 -313 185 -297 187 12 2 29 14 38 27 l15 23 192 -111 c106
-61 244 -141 307 -177z m-1093 246 c15 -14 25 -38 28 -71 6 -47 5 -48 -8 -26
-15 25 -52 50 -77 51 -8 0 -57 -25 -109 -56 l-94 -57 -34 18 c-18 10 -33 22
-33 26 0 9 170 111 222 134 39 16 75 10 105 -19z m-589 -51 l64 -38 -68 -39
c-37 -22 -80 -48 -96 -59 l-28 -20 0 116 0 117 33 -20 c17 -10 61 -36 95 -57z
m976 -122 c187 -108 494 -285 681 -393 187 -108 537 -311 778 -450 240 -139
437 -256 437 -260 0 -9 -242 -150 -257 -150 -5 0 -17 6 -27 13 -17 12 -9 19
83 72 55 32 101 62 101 65 0 6 -634 374 -663 386 -8 3 -19 16 -25 29 -15 32
-54 56 -97 60 -51 5 -598 324 -645 376 -27 30 -46 41 -82 48 -69 12 -623 333
-644 372 -13 26 -13 29 2 29 9 0 170 -88 358 -197z m-26 -63 c139 -79 252
-147 252 -151 0 -28 -58 -2 -291 131 -144 82 -263 151 -264 152 -1 2 -6 13
-10 26 l-7 23 34 -18 c19 -10 148 -83 286 -163z m-678 81 c0 -4 -42 -31 -92
-60 -51 -29 -103 -60 -115 -70 -27 -23 -63 -81 -63 -103 0 -10 -3 -18 -6 -18
-4 0 -39 18 -79 40 -71 39 -73 42 -65 69 19 69 42 90 178 169 l104 60 69 -40
c38 -22 69 -43 69 -47z m2885 37 c35 -19 53 -34 44 -36 -22 -7 -222 -123 -241
-140 -13 -10 -18 -30 -18 -64 0 -51 -4 -55 -33 -34 -16 12 -16 17 -6 34 10 16
10 26 1 48 -12 24 -16 26 -56 21 l-43 -6 6 37 c6 34 13 40 121 104 63 37 127
67 141 67 14 1 52 -13 84 -31z m-2255 -152 l252 -144 -38 -24 c-22 -14 -53
-33 -71 -43 l-31 -18 -164 93 c-235 135 -214 114 -210 204 2 42 5 76 7 76 1 0
116 -65 255 -144z m-445 71 c68 -41 70 -43 75 -90 3 -26 3 -47 0 -47 -3 1 -50
27 -105 59 -102 60 -122 84 -89 108 27 20 43 16 119 -30z m3 -116 l72 -42 0
-567 c0 -359 -4 -581 -10 -604 -10 -34 -26 -55 -35 -46 -3 3 -71 515 -102 768
-5 44 -7 47 -77 87 -61 36 -72 39 -78 25 -7 -17 -159 -1074 -158 -1102 0 -21
109 -84 115 -67 2 6 8 55 15 107 6 52 12 95 13 96 1 2 177 -98 194 -110 0 -1
8 -57 16 -125 16 -131 15 -129 76 -163 l31 -17 0 -126 c0 -70 -4 -125 -8 -123
-7 2 -177 101 -567 327 l-80 47 -3 792 c-1 436 1 792 4 792 3 0 35 -16 70 -36
l64 -36 146 83 c80 46 150 91 155 101 10 18 11 18 42 0 18 -11 65 -38 105 -61z
m2420 7 c7 -7 12 -20 12 -30 0 -19 -22 -35 -157 -114 -86 -50 -158 -111 -174
-148 -7 -15 -8 -9 -4 24 7 49 39 112 77 147 27 25 208 133 224 133 5 0 15 -5
22 -12z m-2124 -62 c50 -29 124 -72 165 -96 60 -35 71 -44 57 -52 -12 -7 -30
-2 -63 17 -40 22 -51 24 -74 15 -24 -10 -39 -5 -155 62 -110 62 -125 73 -101
76 15 2 33 12 40 23 14 23 15 23 131 -45z m29 -135 c4 -5 -25 -27 -65 -51 -90
-52 -115 -74 -139 -122 -35 -69 -29 -79 93 -146 32 -18 64 -32 71 -32 25 0
296 161 302 180 5 16 14 14 85 -27 l80 -45 0 -560 c0 -597 -3 -633 -48 -668
-36 -29 -56 -26 -120 16 -2 1 7 17 20 34 22 31 23 38 26 278 5 418 -25 488
-278 640 -63 39 -118 68 -122 65 -5 -2 -8 -156 -8 -341 0 -301 -2 -341 -18
-371 -29 -59 -41 -60 -127 -11 l-76 44 26 19 c62 45 60 26 63 659 l3 577 112
-65 c62 -36 116 -69 120 -73z m1549 -117 l196 -114 4 -48 c3 -26 4 -48 2 -50
-1 -2 -155 86 -342 195 -319 186 -339 199 -317 210 13 7 26 22 30 32 5 18 16
14 118 -46 62 -36 200 -117 309 -179z m-1031 216 c26 -14 49 -62 49 -102 -1
-30 -2 -31 -12 -13 -35 61 -78 59 -194 -10 l-93 -55 -35 24 -36 24 48 28 c198
118 226 128 273 104z m352 -237 c150 -86 274 -158 277 -160 9 -7 -25 -23 -39
-18 -7 3 -128 71 -267 151 -190 110 -254 151 -254 165 0 11 2 19 5 19 3 0 128
-71 278 -157z m-711 106 l70 -41 -113 -67 c-116 -68 -154 -106 -166 -163 -3
-16 -8 -28 -10 -28 -2 0 -36 19 -75 42 -68 40 -70 42 -65 75 9 56 43 89 160
157 61 36 116 66 120 66 5 0 40 -19 79 -41z m668 -144 c124 -70 236 -135 249
-143 24 -14 23 -14 -43 -53 -37 -21 -71 -39 -76 -39 -9 0 -335 185 -357 203
-14 10 -19 171 -5 164 4 -2 108 -62 232 -132z m-430 64 c77 -45 76 -44 83
-105 l5 -42 -114 66 c-63 36 -114 72 -114 79 0 11 44 42 62 43 3 0 39 -19 78
-41z m530 -323 c-8 -8 -26 -3 -65 18 -50 27 -55 28 -77 14 -22 -14 -29 -12
-148 56 -93 53 -119 72 -102 74 12 2 29 14 38 27 l15 23 175 -101 c125 -72
172 -103 164 -111z m-337 98 c73 -41 136 -79 140 -83 5 -5 -28 -30 -72 -56
-44 -25 -92 -60 -105 -76 -27 -32 -50 -93 -43 -113 6 -14 165 -110 182 -109
18 1 286 161 299 179 12 16 16 15 64 -12 l52 -29 0 -738 c0 -764 -2 -808 -41
-843 -33 -30 -71 -20 -195 51 -134 76 -134 76 -116 82 27 10 51 47 57 87 3 23
32 247 66 499 33 252 59 464 56 470 -5 14 -114 74 -120 67 -5 -6 -74 -664 -83
-797 -4 -51 -11 -93 -15 -93 -5 0 -9 2 -9 5 0 22 -37 402 -65 669 -19 180 -35
332 -35 336 0 11 -121 82 -128 75 -5 -5 29 -317 93 -850 31 -253 31 -299 5
-325 -30 -30 -54 -25 -140 27 l-78 46 33 31 c23 22 36 46 44 84 8 37 11 274
11 772 0 396 2 720 5 720 3 0 65 -34 138 -76z m1549 -121 c150 -86 279 -161
286 -168 10 -9 4 -16 -27 -33 l-40 -23 -153 89 c-84 49 -211 122 -281 162
l-129 72 31 19 c17 10 31 23 31 29 0 5 2 10 5 10 3 0 127 -70 277 -157z m-877
124 c18 -15 28 -36 32 -67 l6 -45 -28 28 c-42 41 -74 36 -182 -28 -69 -42 -96
-53 -105 -45 -7 6 -22 17 -33 25 -11 7 -18 16 -15 19 3 2 57 34 120 70 126 73
162 81 205 43z m527 -336 c92 -53 168 -99 168 -102 1 -30 -61 -1 -328 152
-163 94 -301 174 -306 179 -5 5 -6 16 -3 24 5 13 36 -1 154 -70 81 -47 223
-129 315 -183z m-906 223 c36 -20 63 -41 62 -46 -2 -6 -46 -35 -98 -65 -103
-58 -143 -96 -162 -154 l-13 -38 -72 42 c-49 27 -73 47 -73 59 0 23 33 90 52
105 20 17 222 133 231 133 5 0 38 -16 73 -36z m-1316 -343 c22 -184 38 -336
36 -339 -3 -2 -39 15 -81 38 -56 33 -75 49 -75 65 0 11 16 142 35 290 19 149
35 274 35 279 0 5 2 7 5 5 2 -3 23 -155 45 -338z m2055 154 c132 -76 251 -144
263 -152 24 -15 23 -15 -44 -54 -37 -22 -73 -38 -79 -37 -6 2 -109 59 -228
128 l-216 125 -1 83 0 84 33 -20 c17 -11 140 -81 272 -157z m-493 102 c69 -41
73 -46 76 -83 6 -70 54 -96 94 -51 l21 23 206 -119 c113 -66 237 -138 274
-160 l69 -39 -37 -25 c-20 -13 -43 -22 -52 -19 -18 7 -479 274 -656 380 -128
77 -150 102 -105 124 33 15 29 16 110 -31z m-1041 -118 c86 -55 108 -145 109
-436 0 -167 -11 -231 -46 -264 l-25 -23 -64 34 c-102 55 -100 53 -75 88 35 47
40 92 40 370 0 144 3 262 7 262 3 0 28 -14 54 -31z m1357 -180 c175 -100 323
-187 330 -193 9 -9 12 -216 10 -993 l-3 -981 -192 111 c-186 108 -193 113
-193 143 0 17 7 48 15 67 18 43 19 102 4 145 -8 24 -24 38 -66 59 -106 51
-275 28 -320 -46 -10 -14 -18 -28 -19 -30 -2 -1 -157 86 -346 196 -189 109
-468 271 -620 358 l-277 160 -3 75 c-2 41 -2 77 -1 79 2 3 20 -3 40 -13 35
-17 38 -17 50 0 16 22 17 149 2 193 -8 21 -24 38 -50 52 l-39 19 0 121 c0 66
3 118 8 116 4 -2 125 -72 269 -156 287 -166 308 -173 357 -125 l26 27 0 -139
c0 -77 -5 -155 -10 -175 -13 -45 -44 -79 -75 -79 -40 0 -37 -17 7 -42 24 -13
177 -102 340 -196 192 -111 307 -172 326 -172 15 0 38 7 50 16 43 30 52 64 52
199 0 69 2 125 4 125 2 0 16 -7 32 -15 48 -24 54 -9 54 137 l0 130 -29 26
c-16 15 -36 33 -45 40 -14 11 -16 62 -16 477 0 256 3 465 6 465 3 0 148 -82
322 -181z m592 -445 c0 -325 -2 -365 -15 -354 -13 11 -15 63 -15 360 0 190 3
350 7 353 3 4 10 7 15 7 4 0 8 -165 8 -366z m-41 -3 l0 -339 -44 -26 c-24 -14
-46 -26 -49 -26 -3 0 -6 154 -6 343 l0 342 38 22 c20 12 43 22 49 23 10 0 12
-78 12 -339z m-2180 -200 c30 -28 31 -31 31 -120 0 -100 -3 -103 -56 -70 -34
21 -34 21 -34 97 0 81 7 122 20 122 4 0 22 -13 39 -29z m-554 -84 c99 -57 414
-238 700 -403 1084 -626 1036 -597 1030 -619 -34 -110 -27 -165 29 -212 22
-18 36 -40 40 -64 15 -82 128 -121 239 -83 59 20 87 54 87 105 0 25 5 39 13
38 19 0 359 -204 358 -215 -1 -10 -297 -194 -314 -194 -9 0 -408 229 -1272
730 -187 109 -437 253 -555 320 -201 115 -862 499 -868 505 -4 3 311 193 323
194 6 1 91 -45 190 -102z m1895 -67 c10 -5 23 -24 29 -41 14 -39 15 -236 1
-244 -5 -3 -23 1 -40 10 l-30 16 0 134 c0 138 2 145 40 125z m-2080 -235 c179
-103 494 -286 700 -405 206 -120 492 -285 635 -367 389 -224 977 -564 1003
-580 19 -12 32 -53 16 -53 -3 0 -225 127 -492 282 -268 154 -671 388 -897 518
-225 130 -572 331 -770 445 -198 115 -399 231 -447 259 -71 41 -88 55 -88 74
0 13 3 21 8 19 4 -3 153 -89 332 -192z m2828 35 c4 0 21 9 37 20 17 11 36 20
43 20 9 0 12 -75 12 -340 l0 -339 -45 -27 c-25 -14 -48 -25 -50 -23 -2 2 -5
175 -7 384 -1 209 -2 363 0 343 2 -21 6 -38 10 -38z m132 -295 c0 -320 -2
-364 -15 -359 -13 5 -15 55 -15 358 0 194 3 356 7 359 3 4 10 7 15 7 4 0 8
-164 8 -365z m622 -225 c109 -63 125 -75 110 -85 -9 -7 -81 -51 -159 -98
l-143 -87 0 191 0 191 33 -19 c17 -10 89 -52 159 -93z m-1350 -210 c46 -13 56
-27 32 -45 -33 -25 -116 -37 -170 -25 -49 11 -100 37 -91 47 29 28 161 42 229
23z m-658 -281 l106 -61 0 -904 0 -904 -54 0 c-59 0 -115 19 -146 50 -19 19
-20 34 -20 230 l0 209 72 181 c75 188 79 215 32 215 -15 0 -28 -23 -61 -105
l-42 -105 0 628 c-1 345 1 627 3 627 2 0 52 -27 110 -61z m601 -34 l-7 -65
-34 0 c-67 0 -134 42 -134 83 0 20 5 22 47 19 31 -1 62 4 88 16 22 11 42 18
44 16 2 -2 0 -33 -4 -69z m22 -1632 c197 -113 363 -211 370 -217 13 -11 -18
-30 -676 -410 l-253 -146 -237 136 c-130 74 -239 139 -242 142 -8 8 93 271
104 272 4 0 7 -12 7 -27 1 -33 45 -95 92 -129 117 -87 395 -92 530 -10 80 48
109 91 115 169 8 100 -2 148 -44 196 -19 23 -57 53 -84 67 l-49 24 0 70 c0 39
2 70 5 70 2 0 165 -93 362 -207z m-980 -153 c-63 -162 -119 -296 -125 -298
-12 -4 -385 211 -389 225 -3 7 618 373 625 368 1 -1 -49 -134 -111 -295z m207
159 c-18 -20 -18 -21 -1 -34 12 -8 17 -26 17 -60 0 -41 5 -52 35 -80 43 -41
115 -60 196 -51 106 11 159 55 159 133 0 34 5 49 22 63 l22 17 -22 14 c-22 14
-30 39 -13 39 20 0 107 -67 128 -99 109 -162 -184 -322 -467 -255 -110 25
-211 102 -209 160 0 10 14 48 32 84 25 50 41 70 72 87 44 24 59 15 29 -18z
m-29 -291 c51 -26 111 -42 198 -53 l47 -6 0 -45 0 -44 -43 0 c-23 0 -69 7
-102 15 -126 33 -201 98 -212 187 l-6 43 34 -36 c19 -20 57 -48 84 -61z m-502
-76 c108 -63 197 -116 197 -118 0 -3 -5 -14 -11 -25 -14 -26 -9 -28 -221 94
-175 100 -178 102 -178 135 0 19 4 32 8 30 4 -1 96 -54 205 -116z m510 -295
c223 -129 227 -133 227 -164 0 -18 -2 -33 -5 -33 -3 0 -22 11 -43 23 -20 13
-129 77 -242 142 -113 65 -206 119 -208 120 -2 2 0 15 4 29 5 20 11 25 23 21
9 -3 118 -66 244 -138z m-473 -63 c45 -24 48 -29 43 -58 -3 -22 0 -36 11 -45
13 -11 19 -9 38 12 l23 24 72 -41 c40 -22 72 -43 72 -46 1 -8 -76 -60 -88 -60
-14 0 -311 172 -311 180 0 5 81 59 89 60 2 0 25 -12 51 -26z"/>
<path d="M4900 4675 c0 -74 -2 -135 -4 -135 -2 0 -24 11 -49 25 -42 24 -46 25
-62 9 -14 -14 -16 -35 -13 -139 3 -140 6 -145 94 -195 87 -51 109 -37 97 61
-3 27 -2 49 3 49 4 0 48 -22 96 -50 48 -27 90 -50 93 -50 3 0 5 93 5 208 l0
207 -124 73 c-69 39 -127 72 -130 72 -3 0 -6 -61 -6 -135z m134 44 l106 -62 0
-194 0 -194 -47 28 c-27 15 -75 43 -108 63 l-60 35 -3 193 c-1 105 -1 192 2
192 2 0 52 -28 110 -61z m-134 -266 c0 -58 2 -64 25 -75 23 -10 25 -16 25 -85
0 -52 -4 -73 -12 -73 -24 0 -123 66 -135 91 -13 25 -19 240 -7 252 4 4 29 -5
55 -20 l49 -26 0 -64z"/>
<path d="M2530 5142 c0 -617 -3 -791 -12 -801 -11 -10 -10 -11 5 -6 16 7 17
54 17 801 0 437 -2 794 -5 794 -3 0 -5 -355 -5 -788z"/>
<path d="M2050 3619 l-25 -21 27 16 c31 18 56 20 78 6 11 -7 6 -8 -17 -4 -21
4 -39 2 -48 -6 -9 -7 -27 -14 -40 -16 -24 -2 -115 -50 -115 -60 0 -2 9 0 20 6
11 6 20 8 20 6 0 -3 -14 -13 -31 -22 -18 -9 -28 -11 -24 -4 6 9 2 9 -14 1 -11
-7 -21 -14 -21 -17 0 -3 5 -2 10 1 6 3 10 4 10 1 0 -3 -10 -10 -21 -17 -16 -8
-20 -8 -14 1 6 9 2 9 -14 1 -11 -7 -21 -14 -21 -17 0 -3 5 -2 12 2 7 5 8 3 4
-5 -5 -7 -15 -10 -23 -7 -9 4 -11 2 -7 -6 5 -8 2 -9 -10 -5 -9 4 -15 3 -12 -2
3 -4 -12 -17 -32 -29 -63 -35 -73 -51 -70 -119 2 -34 7 -58 12 -55 5 3 7 -7 4
-22 -3 -14 -1 -26 5 -26 5 0 7 -14 3 -32 -3 -18 -2 -28 2 -21 5 7 18 -39 31
-110 13 -67 27 -137 32 -155 6 -28 2 -45 -23 -97 -18 -35 -36 -61 -41 -58 -6
3 -7 1 -4 -5 9 -14 -3 -43 -14 -36 -5 3 -6 -1 -3 -9 3 -8 0 -18 -7 -23 -8 -4
-10 -3 -5 4 4 7 5 12 3 12 -6 0 -47 -68 -47 -77 0 -4 7 2 15 13 9 10 4 -5 -10
-33 -14 -29 -28 -53 -30 -53 -3 0 1 14 10 30 9 17 13 30 11 30 -11 0 -36 -61
-30 -72 4 -7 3 -8 -4 -4 -11 7 -46 -47 -36 -57 9 -9 -276 -568 -286 -562 -6 4
-7 -1 -3 -11 3 -10 2 -15 -3 -12 -5 4 -10 -6 -11 -20 0 -14 -8 -31 -17 -38 -9
-6 -16 -15 -16 -20 0 -29 -46 -113 -64 -118 -21 -6 -21 -7 -2 -21 11 -8 16
-15 10 -15 -24 -1 42 -40 68 -40 20 0 27 -4 22 -12 -4 -7 4 -3 17 9 19 18 21
25 11 35 -11 11 -12 10 -7 -3 4 -10 2 -19 -3 -23 -5 -3 -7 5 -6 17 1 12 3 26
3 30 1 5 6 5 13 1 7 -4 8 -3 4 4 -9 15 25 77 42 77 13 0 46 75 37 84 -3 2 -5
0 -5 -5 0 -6 -7 -19 -15 -30 -9 -10 -4 6 11 37 20 42 31 55 48 55 15 -1 21 5
22 21 1 13 7 29 14 38 7 8 10 15 6 15 -3 0 14 41 39 90 25 50 43 90 40 90 -3
0 -30 -49 -60 -110 -30 -60 -57 -110 -60 -110 -8 0 213 438 224 444 5 4 12 2
16 -4 4 -6 28 -21 55 -35 27 -14 51 -29 54 -34 8 -13 -35 -102 -46 -95 -4 3
-5 -2 -2 -10 3 -9 -4 -25 -18 -38 -22 -21 -78 -112 -78 -126 0 -3 7 3 15 14
14 18 15 17 4 -8 -7 -15 -16 -25 -22 -21 -6 3 -7 1 -3 -5 3 -6 -1 -27 -11 -46
-15 -33 -33 -43 -66 -37 -5 1 -6 -3 -3 -8 4 -5 0 -12 -6 -14 -8 -3 -6 -6 5 -6
10 -1 16 -5 13 -10 -4 -5 3 -7 14 -4 14 4 20 0 20 -10 0 -19 8 -24 45 -31 29
-5 59 9 50 25 -7 10 83 191 99 201 6 4 11 13 12 20 3 35 5 41 11 35 7 -7 32
22 33 37 0 6 -7 1 -15 -10 -14 -18 -15 -17 -4 8 7 15 16 25 22 21 6 -3 7 -1 3
5 -7 11 13 62 24 62 4 0 15 -10 24 -22 9 -13 14 -17 10 -10 -5 11 -2 12 14 3
25 -13 49 -100 31 -112 -7 -4 -17 -5 -23 -2 -5 3 -6 2 -3 -4 3 -5 7 -31 8 -57
2 -35 8 -51 23 -62 11 -8 26 -31 33 -52 7 -20 11 -26 8 -12 -3 14 -5 32 -5 41
0 9 -12 21 -26 28 -15 6 -24 14 -21 17 3 3 16 -2 29 -10 19 -13 28 -34 42 -97
13 -58 14 -85 7 -92 -19 -19 -13 -81 9 -100 11 -9 20 -13 20 -9 0 11 20 -22
20 -34 0 -6 -10 -10 -22 -10 -17 1 -23 -5 -24 -22 -1 -17 3 -22 14 -17 16 6
32 -10 32 -32 0 -7 -9 -13 -20 -13 -11 0 -23 -7 -26 -15 -4 -8 -11 -12 -17 -8
-5 3 -7 1 -4 -4 4 -6 23 -10 42 -9 19 1 36 -1 38 -4 2 -3 2 2 0 10 -3 8 -6 35
-8 60 l-4 45 14 -47 c7 -27 12 -82 10 -127 -3 -58 0 -79 8 -75 18 6 33 -8 40
-37 6 -23 4 -25 -23 -23 -17 1 -33 -3 -37 -9 -3 -5 -1 -7 4 -4 6 4 13 0 17 -8
3 -8 12 -15 21 -15 17 0 21 -26 5 -33 -6 -3 -5 -4 2 -3 7 1 15 13 18 25 4 16
12 -8 28 -75 12 -53 20 -99 18 -102 -2 -2 -10 22 -17 54 -7 31 -14 53 -16 48
-2 -6 3 -37 10 -69 12 -52 17 -60 42 -67 44 -11 72 0 84 34 6 18 7 36 2 42
-16 21 -19 55 -5 60 20 8 17 27 -5 33 -16 4 -30 29 -31 54 0 3 10 5 23 5 15
-1 22 5 22 17 0 23 20 35 50 30 15 -3 31 3 45 17 l22 22 -24 -6 c-20 -6 -21
-6 -5 4 10 7 25 9 33 6 17 -6 64 13 64 27 0 5 -8 6 -17 3 -17 -6 -17 -5 0 8 9
7 28 11 42 8 23 -4 30 4 26 31 0 4 3 7 9 7 5 0 12 -12 15 -27 3 -16 11 -45 17
-65 8 -28 8 -41 -1 -52 -16 -19 -6 -36 19 -36 29 0 50 -11 50 -26 0 -8 10 -14
25 -14 16 0 25 6 25 15 0 9 -9 15 -22 15 -18 0 -20 2 -8 9 8 6 17 8 20 6 12
-8 3 81 -17 157 -11 42 -16 81 -12 85 7 7 16 38 18 68 1 6 6 3 12 -5 9 -13 10
-13 6 0 -2 8 -8 15 -13 15 -5 0 -21 9 -35 20 -20 15 -31 40 -47 106 -19 78
-20 89 -7 132 10 32 11 45 3 41 -7 -5 -9 -2 -5 9 4 12 2 14 -10 10 -9 -4 -14
-2 -10 3 3 6 1 16 -5 24 -8 12 -9 12 -4 -2 3 -10 2 -18 -3 -18 -10 0 -55 193
-48 211 3 8 6 4 6 -11 2 -29 39 -171 40 -151 1 7 -6 39 -14 71 -8 32 -16 81
-18 108 -1 28 -6 49 -12 49 -5 -1 -11 9 -13 22 -3 17 -6 20 -12 11 -5 -8 -18
32 -35 104 -15 65 -25 119 -22 122 3 3 8 -13 12 -36 4 -23 9 -39 12 -36 5 5
-27 156 -33 156 -3 0 -2 -17 0 -37 6 -36 5 -37 -4 -8 -6 17 -8 44 -4 60 4 24
3 27 -6 15 -9 -12 -10 -8 -6 20 5 26 3 31 -5 20 -8 -12 -10 -8 -7 17 3 18 1
30 -3 28 -10 -7 -21 59 -13 80 5 11 4 16 -3 12 -6 -4 -17 28 -28 81 -9 48 -44
210 -77 360 -33 151 -57 280 -54 288 3 8 2 13 -3 10 -7 -5 -35 89 -36 122 -1
35 -59 41 -95 11z m70 -41 c9 -23 220 -958 220 -977 0 -7 -9 -6 -25 1 -30 14
-22 -17 -130 473 -47 215 -90 400 -95 413 -6 13 -18 22 -31 22 -24 0 -253
-131 -288 -165 -30 -29 -41 37 108 -649 61 -281 111 -511 111 -512 0 -10 -51
5 -55 16 -2 8 -59 270 -126 582 -102 475 -120 570 -109 583 7 8 63 44 124 79
61 35 147 84 191 110 44 25 83 46 88 46 4 0 12 -10 17 -22z m-41 -135 c26
-102 52 -235 48 -239 -3 -3 -8 13 -12 36 -4 23 -9 39 -12 37 -2 -3 5 -48 16
-101 12 -53 21 -99 22 -103 0 -5 4 1 9 12 7 17 9 15 9 -12 1 -17 -3 -35 -9
-38 -6 -3 -7 1 -4 12 5 17 5 17 -6 0 -6 -9 -8 -22 -5 -27 4 -6 1 -9 -6 -8 -6
2 -14 -3 -17 -11 -3 -9 0 -11 7 -6 7 4 1 -16 -13 -44 -15 -28 -29 -51 -31 -51
-3 0 4 18 15 40 11 22 18 40 15 40 -8 0 -45 -77 -39 -83 9 -9 -46 -108 -56
-102 -6 4 -7 -1 -3 -11 4 -12 3 -15 -5 -10 -7 4 -10 2 -7 -6 6 -16 -35 -90
-54 -96 -9 -3 -11 0 -6 8 5 9 4 11 -4 6 -6 -4 -9 -11 -6 -16 3 -5 1 -11 -3
-14 -10 -6 -67 242 -58 251 3 4 6 -4 6 -17 0 -13 3 -21 6 -18 3 3 2 23 -2 44
-6 31 -9 35 -14 19 -5 -16 -8 -12 -14 19 -4 21 -5 41 -2 44 3 3 6 -5 6 -18 0
-13 3 -21 6 -18 3 3 2 23 -2 44 -6 30 -9 34 -14 19 -9 -26 -32 91 -24 125 4
16 3 21 -3 12 -7 -8 -15 14 -27 69 -16 75 -16 82 -1 99 9 10 23 16 30 14 7 -3
16 0 21 7 4 8 3 10 -4 5 -7 -4 -12 -5 -12 -2 0 8 83 51 93 48 4 -1 7 3 7 9 0
5 4 8 9 5 5 -4 11 -2 13 2 5 13 91 62 110 62 12 0 20 -12 27 -37z m36 -627
c-42 -80 -82 -146 -88 -146 -42 1 -37 18 55 190 l93 173 8 -36 c8 -33 2 -48
-68 -181z m114 -40 c24 -109 26 -126 12 -119 -21 10 -132 12 -126 2 7 -10 -22
-19 -40 -13 -18 7 -18 9 -4 35 5 11 14 17 19 14 6 -4 7 1 3 11 -4 12 -3 15 5
10 8 -5 10 -1 5 10 -4 12 -3 15 5 10 8 -5 10 -1 5 10 -5 13 -3 15 7 9 9 -5 11
-4 6 3 -6 9 64 155 71 148 2 -1 16 -60 32 -130z m-524 -212 c-54 -98 -100
-182 -104 -185 -3 -4 -14 1 -23 10 -16 16 -12 25 58 156 42 77 92 169 112 205
l36 65 9 -36 c8 -33 1 -48 -88 -215z m550 53 c59 -29 96 -57 90 -68 -13 -20
-195 -119 -219 -119 -44 0 -166 69 -166 93 0 13 22 27 139 89 78 41 84 41 156
5z m-387 -179 c17 -78 30 -143 29 -144 -6 -6 -237 139 -237 149 0 24 46 68
105 102 33 19 63 35 66 35 3 0 20 -64 37 -142z m485 12 c-15 -14 -343 -200
-352 -200 -5 0 -17 35 -26 78 -9 42 -19 85 -21 95 -7 24 -1 22 69 -19 86 -51
112 -49 221 13 49 28 95 49 103 46 8 -3 11 -9 6 -13z m-573 -108 c106 -65 125
-81 128 -104 2 -16 1 -28 -1 -28 -12 0 -277 163 -277 170 0 15 12 40 19 39 3
0 62 -35 131 -77z m-227 -16 c17 -13 7 -36 -153 -355 -94 -188 -177 -344 -186
-348 -8 -3 -20 -1 -27 6 -8 8 34 101 163 361 96 192 177 350 180 350 3 0 13
-7 23 -14z m835 -98 c67 -37 73 -42 57 -54 -43 -32 -354 -204 -369 -204 -20 0
-32 24 -44 88 l-9 52 140 80 c78 44 143 80 145 80 3 0 38 -19 80 -42z m-587
21 c19 -9 14 -21 -77 -199 -53 -105 -103 -195 -110 -201 -16 -13 -34 -4 -34
18 0 14 191 393 198 393 2 0 12 -5 23 -11z m595 -224 c10 -32 9 -35 -8 -35
-10 0 -32 -7 -49 -15 -16 -9 -34 -13 -40 -10 -5 4 -8 2 -7 -4 2 -6 -26 -27
-62 -47 -59 -32 -63 -31 -13 4 10 7 -4 1 -32 -14 -49 -26 -92 -58 -47 -35 12
6 22 9 22 7 0 -7 -61 -39 -65 -34 -1 2 -5 14 -8 28 -5 22 -2 28 25 38 17 6 35
9 40 6 5 -3 7 -1 6 5 -2 9 203 139 222 140 3 1 10 -15 16 -34z m-264 -455 c59
-250 107 -465 108 -478 0 -19 -5 -23 -22 -20 -21 3 -30 34 -134 473 -61 259
-109 473 -108 476 2 4 14 6 26 5 21 -1 28 -26 130 -456z m330 364 c34 -19 66
-39 70 -42 4 -4 -78 -56 -181 -116 -197 -112 -225 -121 -236 -73 -3 12 -9 41
-14 63 l-8 41 141 81 c77 45 146 82 153 82 6 0 40 -16 75 -36z m6 -238 c-31
-14 -234 -121 -238 -125 -8 -10 -49 -31 -59 -31 -5 0 -11 13 -13 29 -2 17 -1
28 4 25 13 -8 49 6 43 17 -6 8 2 11 21 8 4 0 10 5 14 11 4 6 54 37 111 68
l104 57 8 -28 c5 -16 7 -30 5 -31z m79 -67 c88 -49 103 -30 -133 -165 -204
-117 -225 -117 -240 -2 l-5 43 143 82 c79 45 147 82 152 82 5 1 42 -17 83 -40z"/>
<path d="M7043 2503 c-16 -13 -16 -13 4 -4 34 17 42 12 10 -5 -16 -9 -31 -13
-34 -10 -6 6 -63 -21 -63 -30 0 -2 14 2 30 11 17 9 30 13 30 11 0 -9 -44 -29
-68 -32 -22 -2 -112 -50 -112 -60 0 -2 9 0 20 6 11 6 20 8 20 6 0 -3 -14 -13
-31 -22 -17 -9 -28 -11 -24 -4 8 14 -61 -21 -90 -45 -11 -9 -14 -13 -6 -9 10
5 12 3 7 -5 -5 -7 -15 -10 -23 -7 -8 3 -12 2 -9 -3 3 -5 -1 -12 -10 -15 -9 -4
-13 -2 -8 5 4 8 0 7 -15 0 -11 -7 -21 -15 -21 -20 0 -8 -322 -191 -336 -191
-3 0 -2 6 2 13 4 7 3 9 -2 4 -5 -5 -9 -14 -9 -19 0 -6 -6 -13 -14 -16 -9 -3
-11 0 -6 8 5 9 4 11 -4 6 -6 -4 -9 -11 -6 -16 14 -22 -70 -33 -107 -14 -15 8
-28 12 -28 10 0 -12 61 -36 73 -30 9 5 9 4 0 -7 -11 -11 -19 -9 -50 9 -21 12
-37 26 -36 31 2 6 -5 7 -14 4 -10 -4 -14 -2 -9 5 3 6 1 14 -5 18 -8 4 -9 3 -5
-4 9 -15 1 -15 -25 -1 -11 5 -17 14 -14 19 3 5 0 12 -6 16 -8 5 -9 3 -4 -6 6
-10 4 -11 -11 -5 -24 11 -105 14 -98 4 2 -4 -4 -13 -14 -18 -32 -17 -75 -83
-89 -134 -11 -42 -10 -54 4 -86 9 -20 16 -45 15 -56 -1 -16 0 -17 4 -2 3 9 7
17 9 17 8 0 271 -154 276 -162 3 -5 9 -8 12 -6 4 1 15 -5 26 -14 11 -9 22 -14
25 -11 3 4 6 -1 6 -10 0 -9 5 -17 11 -17 5 0 7 6 4 13 -4 6 3 1 15 -13 12 -14
18 -18 14 -10 -5 8 12 2 42 -14 54 -32 83 -55 44 -37 l-25 12 25 -20 c28 -23
45 -27 34 -9 -4 7 10 2 32 -11 21 -13 74 -43 117 -68 42 -25 77 -47 77 -49 0
-3 -9 0 -20 6 -14 7 -20 7 -20 0 0 -11 1 -11 40 -16 14 -2 39 -7 57 -10 26 -5
48 3 125 47 58 33 102 52 119 51 16 -1 29 4 33 13 4 13 2 14 -14 5 -11 -6 -20
-8 -20 -6 0 11 55 33 69 28 8 -3 11 0 7 6 -4 6 7 18 24 27 30 16 32 15 37 -4
3 -12 10 -21 15 -21 5 0 7 -4 3 -9 -9 -15 16 -24 28 -11 9 10 9 11 0 6 -7 -4
-13 -5 -13 -2 0 3 12 13 28 21 15 9 19 14 10 11 -10 -3 -18 -1 -18 4 0 6 -9
10 -19 10 -11 0 -22 4 -26 10 -7 12 45 39 64 32 9 -3 11 0 6 9 -5 8 -5 11 -1
7 4 -3 17 3 28 14 21 21 21 21 36 2 13 -18 14 -18 7 5 -5 16 -4 21 4 17 6 -4
11 -3 11 2 0 14 169 104 182 96 6 -4 8 -3 5 3 -6 10 277 174 308 178 11 1 26
3 33 4 6 0 12 6 12 11 0 7 -6 7 -20 0 -11 -6 -20 -9 -20 -6 0 6 161 96 171 96
15 0 10 20 -7 27 -13 5 -13 8 -2 15 10 7 8 8 -5 4 -23 -7 -130 52 -120 66 3 7
1 8 -5 4 -13 -8 -263 125 -255 136 2 5 1 8 -4 7 -20 -3 -34 2 -28 11 4 6 -1 7
-11 3 -13 -5 -15 -3 -9 7 5 8 4 11 -3 6 -10 -6 -122 50 -122 61 0 3 25 -9 55
-26 30 -17 55 -29 55 -27 0 10 -90 58 -112 60 -24 3 -68 23 -68 32 0 2 14 -2
30 -11 17 -9 30 -13 30 -11 0 9 -42 28 -67 31 -13 1 -30 8 -36 15 -10 10 -7
10 11 1 12 -6 22 -9 22 -7 0 3 -14 13 -31 22 -20 10 -28 11 -24 3 5 -6 -11 -2
-33 11 -23 13 -40 25 -38 28 2 2 17 -4 33 -13 l28 -17 -24 20 c-28 23 -63 25
-88 5z m414 -235 c205 -117 373 -215 373 -218 0 -3 -69 -43 -153 -89 -124 -70
-392 -221 -853 -482 l-52 -29 20 40 c25 50 33 111 19 138 -6 11 -102 73 -213
138 -112 64 -242 140 -290 168 -49 27 -88 53 -88 56 1 4 849 488 860 489 2 1
172 -95 377 -211z m-1147 -354 c168 -97 333 -192 367 -212 l62 -36 -27 -17
c-63 -39 -102 -108 -102 -180 0 -22 -4 -39 -8 -37 -4 2 -173 99 -374 217 -412
239 -396 226 -362 322 21 58 81 119 117 119 12 0 160 -79 327 -176z"/>
<path d="M5824 1289 c-80 -47 -104 -72 -104 -105 0 -21 -40 -57 -40 -37 0 4
-5 0 -11 -10 -6 -9 -14 -15 -19 -12 -12 7 -24 -57 -17 -91 3 -17 1 -22 -5 -16
-6 6 -9 28 -6 50 2 22 0 38 -4 36 -15 -9 -8 -81 8 -95 9 -7 20 -22 25 -34 9
-19 9 -19 5 3 -2 13 0 20 6 16 5 -4 7 -29 4 -58 -4 -40 -3 -45 4 -21 7 23 8
17 5 -30 -2 -36 -1 -50 4 -35 5 19 10 7 18 -55 8 -56 17 -83 30 -93 10 -7 17
-18 15 -23 -1 -6 2 -8 7 -4 6 3 24 -1 40 -10 22 -11 29 -20 25 -33 -5 -13 -4
-14 4 -3 5 7 15 11 21 7 6 -4 31 5 56 19 24 15 49 24 55 20 6 -4 9 -2 8 4 -2
5 28 29 67 53 l70 43 20 137 c11 76 26 143 33 150 6 6 12 33 12 60 0 43 -3 49
-30 63 -35 18 -41 31 -7 15 21 -11 21 -11 2 4 -11 8 -26 21 -34 28 -12 10 -14
9 -8 -5 11 -28 -1 -19 -18 13 -16 30 -42 49 -79 56 -11 2 -35 6 -53 10 -25 5
-44 -1 -87 -26 -31 -17 -56 -29 -56 -27 0 9 94 60 125 68 28 6 28 7 4 8 -14 1
-56 -17 -95 -40z m175 -38 c24 -14 44 -30 44 -36 2 -17 -143 -98 -173 -97 -15
0 -51 15 -80 33 l-53 33 26 20 c49 40 150 86 172 80 11 -3 40 -18 64 -33z
m111 -81 c22 -17 23 -21 10 -33 -34 -32 -247 -150 -271 -150 -24 0 -189 91
-189 104 0 4 15 16 32 27 27 18 35 19 48 8 32 -28 108 -66 131 -66 26 0 178
82 190 102 4 7 5 16 3 20 -10 15 21 7 46 -12z m-335 -236 l65 -36 0 -114 c0
-63 -2 -114 -4 -114 -9 0 -97 53 -102 62 -11 18 -41 238 -33 238 5 0 38 -16
74 -36z"/>
<path d="M787 1181 c-36 -23 -48 -37 -19 -22 12 6 22 10 22 7 0 -7 -237 -136
-251 -136 -17 0 -159 80 -159 90 0 4 -21 7 -47 7 -42 -2 -53 -7 -88 -42 -22
-22 -43 -40 -47 -40 -3 0 -10 -4 -15 -9 -5 -5 -3 -6 5 -2 15 9 15 6 -3 -37
-21 -50 -19 -99 5 -129 10 -14 17 -28 13 -31 -3 -4 2 -10 11 -13 14 -5 15 -9
4 -15 -10 -7 -9 -9 5 -9 9 0 17 4 17 10 0 5 -8 14 -18 19 -9 6 -13 11 -9 11 4
0 55 -28 112 -62 79 -46 102 -64 95 -74 -6 -6 -20 -10 -31 -7 -15 4 -17 8 -8
14 7 4 17 5 23 2 5 -3 6 -1 2 5 -12 19 -41 -3 -44 -32 -1 -21 3 -26 21 -26 13
0 26 9 32 22 13 28 26 32 50 14 20 -14 19 -15 -5 -25 -23 -9 -24 -10 -3 -10
12 -1 23 4 25 10 4 13 348 -178 348 -192 0 -5 10 -13 21 -20 16 -8 20 -8 14 1
-6 9 -2 9 14 1 11 -7 21 -14 21 -17 0 -3 -5 -2 -12 2 -7 5 -8 3 -4 -5 5 -7 13
-10 20 -8 6 3 32 -6 56 -19 25 -13 37 -24 28 -24 -9 0 -19 -8 -21 -17 -4 -17
-5 -17 -6 0 -1 11 -9 17 -26 17 -22 0 -25 -4 -22 -27 2 -15 10 -29 18 -31 11
-3 11 -1 -1 7 -13 9 -13 11 3 12 34 3 38 4 45 15 10 16 62 14 88 -2 23 -16 57
-9 51 10 -5 15 -47 20 -47 6 0 -6 -5 -8 -11 -4 -8 4 -7 9 2 15 19 12 6 11 -28
-2 -42 -16 -26 -5 60 40 43 23 75 36 71 29 -4 -7 3 -2 16 11 13 13 44 33 69
44 25 11 48 23 51 26 3 4 39 26 81 49 50 27 84 39 100 36 20 -4 21 -3 5 4 -16
7 -7 15 56 50 41 22 84 40 94 38 10 -2 13 -1 7 1 -7 3 -13 9 -13 14 0 5 -18
18 -40 29 -23 12 -38 25 -35 30 3 5 -9 16 -27 25 -29 14 -30 14 -14 0 11 -8
24 -15 30 -15 5 0 7 -3 4 -6 -10 -10 -69 26 -62 38 4 7 3 8 -4 4 -15 -9 -75
22 -67 34 4 6 -1 7 -11 3 -11 -4 -15 -3 -10 5 3 6 1 14 -5 18 -8 5 -9 3 -4 -6
5 -8 3 -11 -6 -8 -8 3 -13 11 -11 17 1 7 -2 10 -8 6 -5 -3 -18 -1 -27 5 -16
10 -16 11 2 5 11 -3 16 -2 11 2 -4 4 -18 8 -29 8 -13 0 -21 5 -19 13 1 8 -2
11 -7 7 -13 -7 -341 174 -341 188 0 6 -3 7 -7 4 -3 -4 -12 1 -20 11 -8 9 -12
11 -8 5 11 -22 -5 -14 -32 15 -15 15 -24 23 -21 17 4 -6 -8 -10 -27 -10 -35 0
-35 9 0 18 l20 5 -20 0 c-11 0 -32 -7 -48 -17z m249 -134 c110 -63 277 -157
372 -211 94 -53 172 -100 172 -104 0 -4 -73 -47 -162 -97 -89 -49 -193 -107
-231 -129 l-69 -38 21 40 c23 46 28 119 9 145 -7 9 -133 85 -279 169 -147 84
-276 160 -288 168 -20 14 -16 18 111 92 73 42 136 77 139 77 4 1 96 -50 205
-112z m-291 -172 c171 -98 314 -181 319 -185 4 -5 -11 -25 -34 -46 -52 -47
-80 -101 -80 -154 0 -22 -3 -40 -6 -40 -4 0 -135 75 -293 166 -157 92 -322
188 -366 213 l-80 47 -3 46 c-5 72 44 152 108 176 30 12 10 22 435 -223z"/>
</g>
</svg>
