<svg width="1311" height="326" viewBox="0 0 1311 326" xmlns="http://www.w3.org/2000/svg">
    <!-- <rect id="middle" x="0.25" y="0.25" width="1310.5" height="325.5" fill="white" stroke="black" stroke-width="0.5" /> -->
    <rect id="middle" x="196" y="261" width="38" height="36" fill-opacity="0.63" />
    <path id="monitor"
        d="M32 44.5H390C394.694 44.5 398.5 48.3056 398.5 53V251C398.5 255.694 394.694 259.5 390 259.5H32C27.3056 259.5 23.5 255.694 23.5 251V53C23.5 48.3056 27.3056 44.5 32 44.5Z"
        fill="none" stroke="#3B7790" stroke-opacity="0.74" stroke-width="3" />
    <rect id="bottom" x="178.035" y="304.233" width="6.85807" height="74.0085"
        transform="rotate(-90.2903 178.035 304.233)" fill-opacity="0.32" />
    <path id="logText"
        d="M578.4 206V226.2C578.4 227.533 577.867 228.667 576.8 229.6C575.733 230.533 574.4 231 572.8 231H480.4C478.933 231 477.667 230.533 476.6 229.6C475.533 228.667 475 227.533 475 226.2C475 213.933 480.067 202.6 490.2 192.2C495.267 186.867 500.2 182.267 505 178.4C509.8 174.533 515.8 170.067 523 165L528.8 160.8C535.6 155.867 541 151.667 545 148.2C549.133 144.733 553.2 140.333 557.2 135C561.333 129.533 563.867 124.133 564.8 118.8H487.8V134.4C487.8 135.733 487.267 136.867 486.2 137.8C485.133 138.6 483.867 139 482.4 139C480.933 139 479.667 138.6 478.6 137.8C477.533 136.867 477 135.733 477 134.4V114C477 112.8 477.533 111.733 478.6 110.8C479.667 109.867 480.933 109.4 482.4 109.4H570.4C571.867 109.4 573.133 109.867 574.2 110.8C575.4 111.733 576 112.8 576 114C576 125.2 571.133 135.8 561.4 145.8C556.467 150.867 552.2 154.933 548.6 158C545 160.933 540.2 164.6 534.2 169L524.2 176.4C517 181.6 511.267 186 507 189.6C502.867 193.2 498.6 198 494.2 204C489.8 209.867 487.133 215.733 486.2 221.6H567.6V206C567.6 204.667 568.133 203.6 569.2 202.8C570.267 201.867 571.533 201.4 573 201.4C574.467 201.4 575.733 201.867 576.8 202.8C577.867 203.6 578.4 204.667 578.4 206ZM655.536 187C655.136 179.8 653.003 174.067 649.136 169.8C645.403 165.533 639.936 163.4 632.736 163.4C625.669 163.4 619.736 165.6 614.936 170C610.136 174.267 607.136 179.933 605.936 187H655.536ZM655.936 211.8C656.869 210.2 657.936 209.4 659.136 209.4C660.336 209.4 661.536 209.733 662.736 210.4C663.936 210.933 664.736 211.867 665.136 213.2C665.669 214.4 665.603 215.533 664.936 216.6C658.136 227.533 647.336 233 632.536 233C620.803 233 611.536 229.267 604.736 221.8C598.069 214.2 594.736 204.667 594.736 193.2C594.736 181.733 598.203 172.4 605.136 165.2C612.069 157.867 621.203 154.2 632.536 154.2C643.869 154.2 652.269 157.6 657.736 164.4C663.336 171.2 666.136 180.267 666.136 191.6C666.136 194.667 664.403 196.2 660.936 196.2L605.536 196.4C606.069 204.667 608.736 211.333 613.536 216.4C618.469 221.333 624.803 223.8 632.536 223.8C642.936 223.8 650.736 219.8 655.936 211.8ZM718.422 163.4C710.822 163.4 704.755 166.133 700.222 171.6C695.689 177.067 693.422 184.467 693.422 193.8C693.422 203.133 695.622 210.467 700.022 215.8C704.555 221.133 710.689 223.8 718.422 223.8C729.622 223.8 738.555 217.467 745.222 204.8V175.4C741.755 172.067 737.555 169.267 732.622 167C727.822 164.6 723.089 163.4 718.422 163.4ZM745.222 90.4H732.022C730.689 90.4 729.555 90 728.622 89.2C727.822 88.2667 727.422 87.1333 727.422 85.8C727.422 84.4667 727.822 83.3333 728.622 82.4C729.555 81.4667 730.689 81 732.022 81H750.622C752.089 81 753.355 81.4667 754.422 82.4C755.489 83.3333 756.022 84.4667 756.022 85.8V217.8C756.022 220.333 757.355 221.6 760.022 221.6H769.222C770.555 221.6 771.622 222.067 772.422 223C773.355 223.8 773.822 224.867 773.822 226.2C773.822 227.533 773.355 228.667 772.422 229.6C771.622 230.533 770.555 231 769.222 231H758.622C749.955 231 745.755 226.267 746.022 216.8C743.089 221.333 739.222 225.2 734.422 228.4C729.755 231.467 724.422 233 718.422 233C706.555 233 697.622 229.2 691.622 221.6C685.755 214 682.822 204.6 682.822 193.4C682.822 182.2 685.889 172.867 692.022 165.4C698.289 157.933 706.822 154.2 717.622 154.2C728.422 154.2 737.622 157.733 745.222 164.8V90.4ZM844.794 187C844.394 179.8 842.26 174.067 838.394 169.8C834.66 165.533 829.194 163.4 821.994 163.4C814.927 163.4 808.994 165.6 804.194 170C799.394 174.267 796.394 179.933 795.194 187H844.794ZM845.194 211.8C846.127 210.2 847.194 209.4 848.394 209.4C849.594 209.4 850.794 209.733 851.994 210.4C853.194 210.933 853.994 211.867 854.394 213.2C854.927 214.4 854.86 215.533 854.194 216.6C847.394 227.533 836.594 233 821.794 233C810.06 233 800.794 229.267 793.994 221.8C787.327 214.2 783.994 204.667 783.994 193.2C783.994 181.733 787.46 172.4 794.394 165.2C801.327 157.867 810.46 154.2 821.794 154.2C833.127 154.2 841.527 157.6 846.994 164.4C852.594 171.2 855.394 180.267 855.394 191.6C855.394 194.667 853.66 196.2 850.194 196.2L794.794 196.4C795.327 204.667 797.994 211.333 802.794 216.4C807.727 221.333 814.06 223.8 821.794 223.8C832.194 223.8 839.994 219.8 845.194 211.8ZM960.825 228.4V118.8H921.225V130.6C921.225 131.933 920.692 133.067 919.625 134C918.558 134.8 917.292 135.2 915.825 135.2C914.358 135.2 913.092 134.8 912.025 134C910.958 133.067 910.425 131.933 910.425 130.6V114.2C910.425 112.867 910.958 111.733 912.025 110.8C913.092 109.867 914.292 109.4 915.625 109.4H1016.63C1018.09 109.4 1019.36 109.867 1020.43 110.8C1021.49 111.733 1022.03 112.867 1022.03 114.2V130.6C1022.03 131.933 1021.49 133.067 1020.43 134C1019.36 134.8 1018.09 135.2 1016.63 135.2C1015.16 135.2 1013.89 134.8 1012.83 134C1011.76 133.067 1011.23 131.933 1011.23 130.6V118.8H971.625V228.4C971.625 229.733 971.092 230.8 970.025 231.6C968.958 232.533 967.692 233 966.225 233C964.758 233 963.492 232.533 962.425 231.6C961.358 230.8 960.825 229.733 960.825 228.4ZM1094.01 187C1093.61 179.8 1091.48 174.067 1087.61 169.8C1083.88 165.533 1078.41 163.4 1071.21 163.4C1064.15 163.4 1058.21 165.6 1053.41 170C1048.61 174.267 1045.61 179.933 1044.41 187H1094.01ZM1094.41 211.8C1095.35 210.2 1096.41 209.4 1097.61 209.4C1098.81 209.4 1100.01 209.733 1101.21 210.4C1102.41 210.933 1103.21 211.867 1103.61 213.2C1104.15 214.4 1104.08 215.533 1103.41 216.6C1096.61 227.533 1085.81 233 1071.01 233C1059.28 233 1050.01 229.267 1043.21 221.8C1036.55 214.2 1033.21 204.667 1033.21 193.2C1033.21 181.733 1036.68 172.4 1043.61 165.2C1050.55 157.867 1059.68 154.2 1071.01 154.2C1082.35 154.2 1090.75 157.6 1096.21 164.4C1101.81 171.2 1104.61 180.267 1104.61 191.6C1104.61 194.667 1102.88 196.2 1099.41 196.2L1044.01 196.4C1044.55 204.667 1047.21 211.333 1052.01 216.4C1056.95 221.333 1063.28 223.8 1071.01 223.8C1081.41 223.8 1089.21 219.8 1094.41 211.8ZM1182.1 211.8C1183.17 210.2 1184.23 209.4 1185.3 209.4C1186.5 209.4 1187.7 209.667 1188.9 210.2C1190.77 211 1191.7 212.133 1191.7 213.6C1191.7 214.933 1191.5 215.933 1191.1 216.6C1184.3 227.533 1173.5 233 1158.7 233C1147.37 233 1138.3 229.2 1131.5 221.6C1124.7 213.867 1121.3 204.4 1121.3 193.2C1121.3 182 1124.83 172.733 1131.9 165.4C1139.1 157.933 1147.97 154.2 1158.5 154.2C1169.17 154.2 1178.43 156.667 1186.3 161.6C1187.9 162.667 1188.7 163.933 1188.7 165.4V182.2C1188.7 183.533 1188.17 184.667 1187.1 185.6C1186.03 186.4 1184.77 186.8 1183.3 186.8C1181.83 186.8 1180.57 186.4 1179.5 185.6C1178.43 184.667 1177.9 183.533 1177.9 182.2V168C1172.57 164.933 1166.17 163.4 1158.7 163.4C1151.23 163.4 1144.9 166.2 1139.7 171.8C1134.5 177.4 1131.9 184.667 1131.9 193.6C1131.9 202.4 1134.37 209.667 1139.3 215.4C1144.37 221 1150.83 223.8 1158.7 223.8C1169.1 223.8 1176.9 219.8 1182.1 211.8ZM1223.04 228.4C1223.04 229.733 1222.5 230.8 1221.44 231.6C1220.37 232.533 1219.1 233 1217.64 233C1216.17 233 1214.9 232.533 1213.84 231.6C1212.77 230.8 1212.24 229.733 1212.24 228.4V90.4H1199.04C1197.7 90.4 1196.64 90 1195.84 89.2C1194.9 88.2667 1194.44 87.1333 1194.44 85.8C1194.44 84.4667 1194.9 83.3333 1195.84 82.4C1196.64 81.4667 1197.7 81 1199.04 81H1217.84C1219.17 81 1220.37 81.4667 1221.44 82.4C1222.5 83.3333 1223.04 84.4667 1223.04 85.8V169.6C1231.3 159.067 1241.1 153.8 1252.44 153.8C1259.9 153.8 1265.84 155.733 1270.24 159.6C1274.77 163.333 1277.04 168.6 1277.04 175.4V218C1277.04 220.4 1278.84 221.6 1282.44 221.6H1290.24C1291.57 221.6 1292.64 222.067 1293.44 223C1294.37 223.933 1294.84 225.067 1294.84 226.4C1294.84 227.733 1294.37 228.867 1293.44 229.8C1292.64 230.6 1291.57 231 1290.24 231H1282.44C1271.64 231 1266.24 226.667 1266.24 218V175.4C1266.24 167.133 1261.64 163 1252.44 163C1240.17 163 1230.37 169.533 1223.04 182.6V228.4Z"
        fill="#000" fill-opacity="0.92" />
    <path id="iconText"
        d="M76.8 160.2C75.2 159.133 74.4 157.8 74.4 156.2C74.4 154.467 75.2 153.067 76.8 152L135 115C135.8 114.6 136.733 114.4 137.8 114.4C138.867 114.4 139.867 115.2 140.8 116.8C141.867 118.267 142.4 119.6 142.4 120.8C142.4 121.867 141.8 122.733 140.6 123.4L88 156L140.6 188.6C141.8 189.267 142.4 190.2 142.4 191.4C142.4 192.467 141.867 193.8 140.8 195.4C139.867 196.867 138.867 197.6 137.8 197.6C136.733 197.6 135.8 197.4 135 197L76.8 160.2ZM168.928 201.4C167.995 203 166.928 203.8 165.728 203.8C164.528 203.8 163.128 203.333 161.528 202.4C159.928 201.467 159.128 200.467 159.128 199.4C159.128 198.333 159.461 197.333 160.128 196.4L238.928 82.8C239.861 81.2 240.928 80.4 242.128 80.4C243.328 80.4 244.728 80.8667 246.328 81.8C247.928 82.7333 248.728 83.8 248.728 85C248.728 86.0667 248.395 87 247.728 87.8L168.928 201.4ZM272.747 197C271.947 197.4 271.014 197.6 269.947 197.6C268.88 197.6 267.814 196.867 266.747 195.4C265.814 193.8 265.347 192.467 265.347 191.4C265.347 190.2 265.947 189.267 267.147 188.6L319.747 156L267.147 123.4C265.947 122.733 265.347 121.867 265.347 120.8C265.347 119.6 265.814 118.267 266.747 116.8C267.814 115.2 268.88 114.4 269.947 114.4C271.014 114.4 271.947 114.6 272.747 115L330.947 152C332.547 153.067 333.347 154.467 333.347 156.2C333.347 157.8 332.547 159.133 330.947 160.2L272.747 197Z"
        fill="#3B7790" fill-opacity="0.72" />
</svg>