<svg width="591.7525390625px" height="351.202490234375px" xmlns="http://www.w3.org/2000/svg" viewBox="-45.87626953124999 -100.60124511718749 591.7525390625 351.202490234375" style="background: none;" preserveAspectRatio="xMidYMid"><defs><linearGradient id="editing-glowing-gradient" x1="0.19216926233717085" x2="0.8078307376628291" y1="0.10599462319663899" y2="0.894005376803361"><stop offset="0" stop-color="#272727"></stop><stop offset="1" stop-color="#333333"></stop></linearGradient><filter id="editing-glowing" x="-100%" y="-100%" width="300%" height="300%"><feGaussianBlur in="SourceGraphic" result="blur" stdDeviation="5.5"></feGaussianBlur><feMerge><feMergeNode in="blur"></feMergeNode><feMergeNode in="SourceGraphic"></feMergeNode></feMerge></filter></defs><g filter="url(#editing-glowing)"><g transform="translate(39.899993896484375, 148.9000015258789)"><path d="M30.20-10.60L53.40-10.60L53.40-10.60Q90.20-10.60 99.60-14L99.60-14L99.60-14Q109.40-17.80 113.40-24.80L113.40-24.80L113.40-24.80Q115.60-28.60 117.40-34.20L117.40-34.20L122.80-31.80L122.80-31.80Q119.20-20.80 118 0L118 0L10.80 0L6-7L95.60-126.20L95.60-126.20Q42.80-126.20 32.30-123.20L32.30-123.20L32.30-123.20Q21.80-120.20 16.60-103.40L16.60-103.40L11.20-105.80L11.20-105.80Q13.60-119.40 13.60-135.20L13.60-135.20L13.60-138.20L13.60-138.20Q30-137 89.60-137L89.60-137L116-137L119.60-130.40L30.20-10.60ZM195.60-64L195.60-64L195.60-64Q195.60-73.20 190.40-77.70L190.40-77.70L190.40-77.70Q185.20-82.20 178.80-82.20L178.80-82.20L178.80-82.20Q169.40-82.20 162.60-74.80L162.60-74.80L162.60-74.80Q155.80-67.40 153.60-56.60L153.60-56.60L195-58.20L195-58.20Q195.60-61.20 195.60-64ZM178.20 1.80L178.20 1.80L178.20 1.80Q157 1.80 146.20-10.30L146.20-10.30L146.20-10.30Q135.40-22.40 135.40-42.50L135.40-42.50L135.40-42.50Q135.40-62.60 147.30-77.30L147.30-77.30L147.30-77.30Q159.20-92 183.20-92L183.20-92L183.20-92Q195.40-92 204.50-83.40L204.50-83.40L204.50-83.40Q213.60-74.80 213.60-57.80L213.60-57.80L206.80-49.60L206.80-49.60Q205.60-49.80 187.90-49.80L187.90-49.80L187.90-49.80Q170.20-49.80 152.40-48.40L152.40-48.40L152.40-46.60L152.40-46.60Q152.40-28.40 160-19.30L160-19.30L160-19.30Q167.60-10.20 180.80-10.20L180.80-10.20L180.80-10.20Q194-10.20 208.60-16.60L208.60-16.60L211-10.60L211-10.60Q195.60 1.80 178.20 1.80ZM295.20-11.20L295.20-11.20L295.20-11.20Q281.40 1.80 265 1.80L265 1.80L265 1.80Q248.60 1.80 238.10-10.10L238.10-10.10L238.10-10.10Q227.60-22 227.60-44.10L227.60-44.10L227.60-44.10Q227.60-66.20 240.10-79.20L240.10-79.20L240.10-79.20Q252.60-92.20 271-92.20L271-92.20L271-92.20Q281-92.20 295-85.20L295-85.20L295-85.20Q295-122.20 293.80-130.60L293.80-130.60L293.40-133.40L280.60-137.20L280.20-142.40L280.20-142.40Q293-142.40 306.60-146L306.60-146L310.40-144.20L310.40-144.20Q310-119.20 310-73.40L310-73.40L310-73.40Q310-27.60 310.40-21L310.40-21L310.40-21Q310.80-14.40 312.10-12.70L312.10-12.70L312.10-12.70Q313.40-11 316-10.20L316-10.20L316-10.20Q320.20-9 325.80-8.60L325.80-8.60L325.20-2.80L325.20-2.80Q318-2.20 303.40 0.80L303.40 0.80L303.40 0.80Q297.40-1.80 295.20-11.20ZM276.20-80L276.20-80L276.20-80Q260.40-80 252.90-69.70L252.90-69.70L252.90-69.70Q245.40-59.40 245.40-44.20L245.40-44.20L245.40-44.20Q245.40-29 252-19.90L252-19.90L252-19.90Q258.60-10.80 270.80-10.80L270.80-10.80L270.80-10.80Q283-10.80 294-17.80L294-17.80L294-17.80Q295-33.80 295-76.40L295-76.40L295-76.40Q284.60-80 276.20-80ZM396.20-64L396.20-64L396.20-64Q396.20-73.20 391-77.70L391-77.70L391-77.70Q385.80-82.20 379.40-82.20L379.40-82.20L379.40-82.20Q370-82.20 363.20-74.80L363.20-74.80L363.20-74.80Q356.40-67.40 354.20-56.60L354.20-56.60L395.60-58.20L395.60-58.20Q396.20-61.20 396.20-64ZM378.80 1.80L378.80 1.80L378.80 1.80Q357.60 1.80 346.80-10.30L346.80-10.30L346.80-10.30Q336-22.40 336-42.50L336-42.50L336-42.50Q336-62.60 347.90-77.30L347.90-77.30L347.90-77.30Q359.80-92 383.80-92L383.80-92L383.80-92Q396-92 405.10-83.40L405.10-83.40L405.10-83.40Q414.20-74.80 414.20-57.80L414.20-57.80L407.40-49.60L407.40-49.60Q406.20-49.80 388.50-49.80L388.50-49.80L388.50-49.80Q370.80-49.80 353-48.40L353-48.40L353-46.60L353-46.60Q353-28.40 360.60-19.30L360.60-19.30L360.60-19.30Q368.20-10.20 381.40-10.20L381.40-10.20L381.40-10.20Q394.60-10.20 409.20-16.60L409.20-16.60L411.60-10.60L411.60-10.60Q396.20 1.80 378.80 1.80Z" fill="url(#editing-glowing-gradient)"></path></g></g><style>text {
  font-size: 64px;
  font-family: Arial Black;
  dominant-baseline: central;
  text-anchor: middle;
}</style></svg>