<?xml version="1.0" standalone="no"?>
<!DOCTYPE svg PUBLIC "-//W3C//DTD SVG 20010904//EN"
 "http://www.w3.org/TR/2001/REC-SVG-20010904/DTD/svg10.dtd">
<svg version="1.0" xmlns="http://www.w3.org/2000/svg"
 width="200.000000pt" height="200.000000pt" viewBox="0 0 200.000000 200.000000"
 preserveAspectRatio="xMidYMid meet">
<metadata>
Created by potrace 1.11, written by Peter Selinger 2001-2013
</metadata>
<g transform="translate(0.000000,200.000000) scale(0.100000,-0.100000)"
fill="#000000" stroke="none">
<path d="M2 1003 l3 -998 998 -3 997 -2 0 991 0 992 -232 -232 c-929 -925
-1159 -1151 -1133 -1116 16 22 56 65 90 95 33 30 77 74 98 98 20 24 37 40 37
35 0 -4 4 -2 9 6 10 16 151 161 151 155 0 -2 15 13 34 34 19 20 235 240 480
487 245 247 446 450 446 452 0 2 -446 3 -990 3 l-990 0 2 -997z m598 -406 c0
-2 -16 -21 -35 -43 -19 -21 -35 -36 -35 -32 0 4 14 23 31 43 28 32 39 41 39
32z m-110 -106 c0 -5 -9 -19 -20 -32 l-20 -24 17 32 c19 34 23 39 23 24z m-92
-102 c-17 -19 -28 -27 -23 -19 12 22 48 61 52 56 2 -2 -11 -18 -29 -37z m-58
-46 c-1 -5 -12 -21 -26 -38 -26 -30 -23 -21 6 23 16 23 20 27 20 15z m-110
-123 c-6 -11 -15 -20 -20 -20 -6 0 -2 9 7 20 10 11 19 20 21 20 1 0 -2 -9 -8
-20z m-140 -134 c0 -2 -8 -10 -17 -17 -16 -13 -17 -12 -4 4 13 16 21 21 21 13z
m-30 -40 c0 -2 -7 -7 -16 -10 -8 -3 -12 -2 -9 4 6 10 25 14 25 6z"/>
</g>
</svg>
